<svg id="Camada_1" data-name="Camada 1" height="40" width="40"  xmlns="http://www.w3.org/2000/svg" viewBox="0 0 60 50.28"><defs><style>.cls-1{fill:#fff;}</style></defs><path class="cls-1" d="M53.84,30.84a42.93,42.93,0,0,0,13.74-2.63,17.53,17.53,0,0,0,4.3-2.28c.77-.63,1.65-1.61.88-2.6a3,3,0,0,0-1.12-.83,7.45,7.45,0,0,0-3.28-.3,20.89,20.89,0,0,0-10.15,3.21,13,13,0,0,0-4.37,5.43M50.93,46.9C50,56.05,48.55,65.3,39.26,70.21A10,10,0,0,0,48,69.5C59.89,63.17,59.89,50.13,60.5,38.58c-2.8.19-5.54.15-8.3.11h-.37c-.35,2.37-.57,4.85-.81,7.35a33.91,33.91,0,0,0,4.14-.3,4.2,4.2,0,0,0,1.32-.38A3.71,3.71,0,0,1,57.56,45a1,1,0,0,1,1.08.71c.07.48-.38.95-1,1A40.52,40.52,0,0,1,50.93,46.9Zm.35-16A13.26,13.26,0,0,1,56,24.65a15.12,15.12,0,0,1,3.28-1.73h0a27.2,27.2,0,0,1,7-1.5,14.26,14.26,0,0,1,7.16,1.49A4.39,4.39,0,0,1,75,24c.78,1-.07,2-.88,2.66A17.13,17.13,0,0,1,69.77,29,46.29,46.29,0,0,1,53.49,31.7a32.27,32.27,0,0,0-1.55,6.23,71.46,71.46,0,0,0,8.61-.31c0-.31,0-.61.05-.91.2-2.23,1.67-3.75,4.32-4.48-1.5,1.31-2,3-2.09,5.08h0a39.31,39.31,0,0,0,7.7-2.06,14.83,14.83,0,0,0,4.14-2.38c1.19-1.06,1.81-2.45,0-3.31,1.18.08,4,.84,3.29,2.72a3.74,3.74,0,0,1-1,1.35A15.13,15.13,0,0,1,72.72,36a40.18,40.18,0,0,1-9.95,2.37c-.67,11.78-.34,25.37-12.61,31.87a13.06,13.06,0,0,1-11.41.21l-.17.09c-5.76,2.8-12.32,0-16.23-4.76a19.77,19.77,0,0,1-3.8-8.12A16,16,0,0,1,18,54.6c0-1.15.32-2.92,1.76-2.91a1.81,1.81,0,0,1,1.52,2.09c-.13,2.69-.56,3.68.12,6.58,1.66,7,7.65,13,14.93,9.43l.54-.26c-4.61-2.74-6.78-6.72-8.1-11.72a14.21,14.21,0,0,1-.44-2.24c-.13-1.19.07-3.14,1.63-3.15a1.79,1.79,0,0,1,1.56,2c0,2.05-.43,2.77,0,5a16.54,16.54,0,0,0,.5,2,14.52,14.52,0,0,0,5.41,7.73c8.74-4.85,10.34-13.64,11.27-22.48-3.41-.29-7.34-.87-10.23.12,2.68-1.48,6.06-1,10.3-.87.25-2.49.46-5,.78-7.37-4.68-.1-11.85-.07-14.68,2.2,2.16-2.87,10.81-3,14.78-2.93A38.2,38.2,0,0,1,51,31.71c-5.42,0-16.76-.16-19.75,3.16C33.17,31.13,45.49,31.06,51.28,30.92Z" transform="translate(-18.04 -21.4)"/></svg>