<svg id="Camada_1" height="60" width="60"  data-name="Camada 1" xmlns="http://www.w3.org/2000/svg" viewBox="0 0 79.38 36.55"><defs><style>.cls-1{fill:#fff;}</style></defs><path class="cls-1" d="M18.64,45.08c0-4,0-8,0-12a2.88,2.88,0,0,1,1.54-2.77A2.94,2.94,0,0,1,21.52,30C27.36,30,33.2,30,39,30c.73,0,1.46,0,2.18,0a6,6,0,0,1,5.5,3.64,5.4,5.4,0,0,1,.5,2.44c0,1.4,0,2.81,0,4.22a8.33,8.33,0,0,1-1,3.61A8.75,8.75,0,0,1,43,47.52a8.36,8.36,0,0,1-4,1.46.79.79,0,0,0-.56.33c-.06.11.1.42.25.55,2.2,1.9,4.42,3.78,6.63,5.67.74.62,1.49,1.23,2.21,1.88a1.89,1.89,0,0,1,.31.6,2,2,0,0,1-.64.25c-2.05,0-4.1,0-6.16,0a1.91,1.91,0,0,1-1.33-.47c-1.62-1.43-3.26-2.84-4.9-4.25s-3.18-2.74-4.81-4.07A2,2,0,0,0,29,49.07c-.42,0-.56.37-.31.72a2.28,2.28,0,0,0,.42.4l7.53,6.47c.33.28.71.52,1,.81a.67.67,0,0,1,.19.53c0,.12-.29.25-.45.26a2.65,2.65,0,0,1-2-.72c-1.3-1.16-2.64-2.27-4-3.41-1.6-1.39-3.17-2.81-4.8-4.15a1.83,1.83,0,0,1-.7-1.8,23.26,23.26,0,0,0,0-3c0-1,.33-1.38,1.33-1.39a19.76,19.76,0,0,0,3.18-.16,3.8,3.8,0,0,0,3-2.54,3,3,0,0,0,.2-1c0-1.23,0-2.46,0-3.69a1.14,1.14,0,0,0-1.22-1.21l-5.48,0c-.57,0-1.13,0-1.7,0-.83,0-1.16.28-1.16,1.11,0,4.06,0,8.12,0,12.18a1.7,1.7,0,0,0,.63,1.39c1.65,1.41,3.28,2.83,4.93,4.23l3.83,3.26a.58.58,0,0,1,.21.2c.07.13.19.32.14.42a.58.58,0,0,1-.4.25,2.77,2.77,0,0,1-2.27-.85C29.73,56.22,28.34,55.11,27,54c-.64-.55-1.24-1.14-1.86-1.7a1.59,1.59,0,0,0-.43-.3c-.45-.16-.69,0-.71.48s0,.94,0,1.41c0,1.15,0,2.3,0,3.44,0,.66-.24.92-.9.93l-3.44,0c-.74,0-1.09-.36-1.09-1.12v-12Zm19.1-6.87h0c0-.54,0-1.07,0-1.6a2,2,0,0,0-.25-.87,1.16,1.16,0,0,0-1.25-.4.73.73,0,0,0-.41.8c0,1.13,0,2.26.09,3.39a3.77,3.77,0,0,1-1.35,3.17,1.56,1.56,0,0,0-.35.46.45.45,0,0,0,0,.39.42.42,0,0,0,.38.08,4.23,4.23,0,0,0,3.15-4.07C37.75,39.11,37.74,38.66,37.74,38.21Zm4.11,0h0c0-.65,0-1.29,0-1.94a1.06,1.06,0,0,0-1.11-.93c-.44,0-.63.35-.63,1,0,1.15,0,2.29,0,3.44a2.88,2.88,0,0,1-.49,1.83c-.36.47-.77.91-1.13,1.37a1.7,1.7,0,0,0-.17.51,1.33,1.33,0,0,0,.57.09,4.2,4.2,0,0,0,3-4Z" transform="translate(-10.31 -29.94)"/><path class="cls-1" d="M75.63,30h13c.77,0,1.06.27,1.06,1,0,1.06,0,2.13,0,3.2,0,.71-.3,1-1,1L79.4,35.2c-.83,0-1.09.27-1.09,1.1q0,10.44,0,20.86c0,.77-.26,1-1,1h-3.4c-.83,0-1-.2-1-1l0-20.91c0-.85-.34-1.19-1.09-1.08-.55.07-.8.37-.8,1,0,.92,0,1.84,0,2.76q0,9.15,0,18.3c0,.71-.18.92-.89,1a2.57,2.57,0,0,1-.48,0c-.8,0-1-.25-1-1q0-9.66,0-19.31c0-.57,0-1.14,0-1.7s-.33-1-1-1-.93.33-1,1,0,1.29,0,1.94V55.67c0,.57,0,1.14,0,1.7a.74.74,0,0,1-.68.81,5.68,5.68,0,0,1-.72,0c-.63,0-.9-.27-.89-.89s0-1.42,0-2.13q0-9.47,0-18.92c0-.77-.31-1.1-1.09-1.09-.37,0-.74.07-1.11.06-.6,0-.86-.27-.87-.86,0-1.18,0-2.36,0-3.54,0-.62.29-.85,1-.84h9.81c1.06,0,2.13,0,3.2,0Z" transform="translate(-10.31 -29.94)"/><path class="cls-1" d="M10.36,45.14V34a5.24,5.24,0,0,1,.19-2.15A2.94,2.94,0,0,1,13.39,30c.16,0,.42.11.47.23a.57.57,0,0,1-.18.49,2.81,2.81,0,0,0-1,2.76c.08,1,0,2.1,0,3.15q0,10.26,0,20.51c0,.43,0,.88-.53,1A1.58,1.58,0,0,1,10.53,58a1.05,1.05,0,0,1-.21-.71q0-6.06,0-12.12Z" transform="translate(-10.31 -29.94)"/><path class="cls-1" d="M14.58,44.93V32.85a2.61,2.61,0,0,1,1.66-2.6A4.46,4.46,0,0,1,17.6,30c.19,0,.39.14.59.22-.1.19-.16.44-.31.55a2.31,2.31,0,0,0-1,1.35,3.57,3.57,0,0,0-.13.91q0,11.23,0,22.46c0,.6,0,1.2,0,1.8,0,.76-.22,1-1,1a2.54,2.54,0,0,1-.39,0,.85.85,0,0,1-.87-1V44.93Z" transform="translate(-10.31 -29.94)"/><path class="cls-1" d="M17.24,63.4V61.46c0-.66.31-1.09.91-1.07,1.53,0,3.07.06,4.59.24a3.31,3.31,0,0,1,1.6.9c.54.46.43,1.13-.14,1.64-.22.2-.48.33-.71.51a.6.6,0,0,0-.09,1c.27.3.57.58.81.9a.67.67,0,0,1,.12.57c-.06.14-.32.2-.5.27s-.16,0-.24,0a2.24,2.24,0,0,1-2.49-1.34,2,2,0,0,0-.48-.59.49.49,0,0,0-.83.35,3.08,3.08,0,0,0,0,.43c0,.8-.27,1.11-1.08,1.15h-.43c-.77-.06-1-.35-1-1.11s0-1.26,0-1.89Zm3.45-2a.9.9,0,1,0,.08,1.79c.63,0,1.2-.46,1.19-.91S21.33,61.42,20.69,61.42Z" transform="translate(-10.31 -29.94)"/><path class="cls-1" d="M57.73,63.85c0-.45,0-.91,0-1.36,0-.75-.3-1.06-1-1.08a5.61,5.61,0,0,1-.58,0c-.35,0-.6-.23-.57-.59s.36-.46.69-.46c.79,0,1.57,0,2.36,0s1.71,0,2.57,0a3.06,3.06,0,0,1,1,.13,1.42,1.42,0,0,0,1.21-.08,1.18,1.18,0,0,1,1.32,0,.54.54,0,0,1,0,1,1.07,1.07,0,0,1-1.19.12c-.89-.47-1.77,0-2.65,0-.39,0-.55.44-.57.8,0,.53,0,1.06,0,1.59a13.59,13.59,0,0,1,0,1.69c-.08.61-.42.85-1,.86a3.89,3.89,0,0,1-.68,0,1,1,0,0,1-.91-1.09c0-.48,0-1,0-1.45Z" transform="translate(-10.31 -29.94)"/><path class="cls-1" d="M77.46,63.78c0,.5,0,1,0,1.49a1,1,0,0,1-.94,1.14c-.72,0-1-.26-1.09-1a2.39,2.39,0,0,0-.25-.6c-.22.13-.45.25-.66.4s-.1.2-.16.3c-.34.58-.71.57-1.08,0-.18-.28-.25-.76-.72-.66s-.25.56-.37.85-.26.52-.45.57c-.35.08-.5-.23-.54-.54a5.9,5.9,0,0,1,0-.73,8.72,8.72,0,0,0-.06-1.25,1.24,1.24,0,0,1,.55-1.37,1.34,1.34,0,0,1,1.57.25c.19.2.34.43.51.64a.58.58,0,0,0,1.06,0,4.1,4.1,0,0,1,.26-.41,1.33,1.33,0,0,1,1.59-.49A1.39,1.39,0,0,1,77.46,63.78Z" transform="translate(-10.31 -29.94)"/><path class="cls-1" d="M35.16,64.41a4.68,4.68,0,0,1,0,1.06,1.68,1.68,0,0,1-.51.86c-.3.25-.66.06-.92-.18s-.65-.67-1-1a2.65,2.65,0,0,0-.42-.4c-.37-.24-.66-.08-.68.36a3.07,3.07,0,0,1,0,.68c-.06.18-.22.44-.38.47s-.4-.13-.56-.26a.55.55,0,0,1-.16-.39,17.57,17.57,0,0,1,.05-2.41,1.07,1.07,0,0,1,1.81-.67c.27.21.5.46.75.68.42.36.71.29.92-.23.11-.28.23-.57.59-.52a.66.66,0,0,1,.56.69c0,.42,0,.84,0,1.26Z" transform="translate(-10.31 -29.94)"/><path class="cls-1" d="M50.28,66.49a5.94,5.94,0,0,1-.82-.35,2,2,0,0,0-2.42,0,.8.8,0,0,1-.73.07.77.77,0,0,1-.14-.72,23.54,23.54,0,0,1,1.55-2.72,1.08,1.08,0,0,1,1.92,0,22.21,22.21,0,0,1,1.54,2.89C51.38,66.11,51,66.43,50.28,66.49Zm-1.41-2c-.28-.21-.47-.45-.6-.41a.67.67,0,0,0-.44.44c0,.14.27.41.43.42S48.59,64.65,48.87,64.44Z" transform="translate(-10.31 -29.94)"/><path class="cls-1" d="M40,66.47a4.47,4.47,0,0,1-.79-.31,2.13,2.13,0,0,0-2.61,0c-.13.1-.53.12-.55.06a1.17,1.17,0,0,1-.1-.71,4.3,4.3,0,0,1,.42-1,13.11,13.11,0,0,1,.93-1.64,1.17,1.17,0,0,1,2.06-.05,5.8,5.8,0,0,1,.62,1c.26.48.47,1,.72,1.48C41.08,66,40.82,66.4,40,66.47Zm-2-2.64-.22,0c-.15.22-.42.43-.43.65s.28.39.43.59c.19-.19.48-.36.54-.58S38.19,64,38.07,63.83Z" transform="translate(-10.31 -29.94)"/><path class="cls-1" d="M80.71,62.31c.38,0,.77,0,1.16,0s.58.11.5.43c0,.16-.34.3-.55.39s-.35,0-.47,0a3,3,0,0,0-.52.42,3.28,3.28,0,0,0,.5.42c.15.08.36,0,.51.1a.42.42,0,0,1,.23.32c0,.1-.16.24-.27.28s-.43,0-.62.08a2.31,2.31,0,0,0-.49.3c.15.16.27.38.44.45a2.46,2.46,0,0,0,.72,0c.29,0,.62.08.58.42a.7.7,0,0,1-.51.45,18.19,18.19,0,0,1-2.45-.11,1.27,1.27,0,0,1-.94-1.22c0-.45,0-.9,0-1.35a1.23,1.23,0,0,1,1.35-1.39h.83Z" transform="translate(-10.31 -29.94)"/><path class="cls-1" d="M28.5,65.57c.21,0,.38,0,.46,0s.37.29.4.46-.23.36-.38.39a6.87,6.87,0,0,1-1.11,0c-.4,0-.81,0-1.21-.06a1.29,1.29,0,0,1-1.17-1.53,6.7,6.7,0,0,0,.05-1.1,1.22,1.22,0,0,1,1.23-1.37l1.69-.09a1,1,0,0,1,.52.06c.14.06.33.25.31.35a.61.61,0,0,1-.35.37c-.19.08-.44,0-.62.09a.82.82,0,0,0-.38.42c0,.06.19.26.33.33s.39.08.55.18a.5.5,0,0,1,.23.37c0,.08-.18.2-.3.24s-.36,0-.52.07a2.94,2.94,0,0,0-.5.31,4.35,4.35,0,0,0,.48.48C28.29,65.61,28.45,65.57,28.5,65.57Z" transform="translate(-10.31 -29.94)"/><path class="cls-1" d="M68.36,62.33a5.91,5.91,0,0,1,1.11,0c.19,0,.35.25.53.38a2.76,2.76,0,0,1-.53.45c-.18.09-.42,0-.61.09s-.3.21-.29.31a.64.64,0,0,0,.26.4c.11.07.3,0,.42.11a3.59,3.59,0,0,1,.5.37,4.59,4.59,0,0,1-.57.32c-.11,0-.27,0-.38,0a2.42,2.42,0,0,0-.45.34c.14.15.26.37.43.44a1.87,1.87,0,0,0,.67,0c.31,0,.6.14.57.45a.7.7,0,0,1-.52.42,13.34,13.34,0,0,1-2.45-.16,1.1,1.1,0,0,1-.73-.78,10.15,10.15,0,0,1,0-2.4c0-.47.46-.71,1-.73h1.06Z" transform="translate(-10.31 -29.94)"/><path class="cls-1" d="M59.72,32.66V34.3c0,.64-.2.9-.83,1-1,.11-1.61-.24-1.55-1.34.06-.9,0-1.81,0-2.71,0-.43,0-.89.44-1.09a1.57,1.57,0,0,1,1.53,0,1.06,1.06,0,0,1,.37.72c.05.59,0,1.19,0,1.79Z" transform="translate(-10.31 -29.94)"/><path class="cls-1" d="M55.53,32.65c0,.58,0,1.16,0,1.74s-.22.79-.78.86a3.76,3.76,0,0,1-.67,0c-.58,0-.81-.29-.81-.87s0-1.42,0-2.13a7.62,7.62,0,0,0-.11-1.06A.91.91,0,0,1,53.92,30a2.82,2.82,0,0,1,.82,0,.83.83,0,0,1,.81.95c0,.56,0,1.13,0,1.69Z" transform="translate(-10.31 -29.94)"/><path class="cls-1" d="M42.46,64.87c0-.14,0-.29,0-.43.08-.87,0-1-.84-1.24-.18-.06-.31-.3-.47-.46.18-.15.36-.42.55-.42,1.22,0,2.45,0,3.67,0,.17,0,.33.24.49.37-.14.17-.26.42-.44.48-.71.25-.85.39-.91,1.16l-.06,1.11c0,.61-.23.88-.75,1a1,1,0,0,1-1.21-.73,4.57,4.57,0,0,1-.09-.82Z" transform="translate(-10.31 -29.94)"/><path class="cls-1" d="M65.13,64.44v1a1,1,0,0,1-1,1,1,1,0,0,1-1.21-.85c0-.81,0-1.62,0-2.42,0-.43.57-.78,1.09-.76s1.07.33,1.1.8,0,.84,0,1.26Z" transform="translate(-10.31 -29.94)"/></svg>