<svg id="Camada_1" height="60" width="60"  data-name="Camada 1" xmlns="http://www.w3.org/2000/svg" viewBox="0 0 74.14 61.22"><defs><style>.cls-1{fill:#fff;}</style></defs><path class="cls-1" d="M58.36,67.2c1.42-.56,2.71-1.07,4-1.6a.42.42,0,0,0,.21-.32c0-2.64,0-5.27.06-7.91,0-.77.19-.95,1-1,.4,0,.8,0,1.2.07s.4.21.37.49c-.15,1.38-.37,2.75-.43,4.13-.08,1.83,0,3.67,0,5.5a1.16,1.16,0,0,0,.08.26c.37-.79.67-1.54,1.06-2.23.51-.91,1.07-1.79,1.66-2.65a1,1,0,0,1,.68-.39,7.72,7.72,0,0,1,1.52,0c.47,0,.56.18.49.64a35.55,35.55,0,0,0-.52,6.68c0,.23.06.46.11.81l.37-.46c.87-1,1.75-2.07,2.61-3.12a1.62,1.62,0,0,0,.33-.73,6.07,6.07,0,0,1,1-2.78,3.36,3.36,0,0,1,4.08-1,5.73,5.73,0,0,1,1,.81c.07-.36.15-.75.22-1.14a.6.6,0,0,1,.65-.55c.52,0,1,0,1.56,0,.36,0,.49.15.44.57-.27,2.18-.52,4.38-.73,6.57a12.38,12.38,0,0,0,.08,1.72l.13,0,.28-.35C82.9,68,84,66.78,85.08,65.55c.28-.33.47-.33.91-.15-.09.14-.17.27-.26.39C84.47,67.42,83.21,69,82,70.68a.76.76,0,0,1-.92.33h0a1.79,1.79,0,0,1-1.66-1.83c0-.66-.17-1.32-.27-2.11-.16.2-.25.32-.35.43a23.19,23.19,0,0,1-2,2.11,2.2,2.2,0,0,1-3.25-.7,6.18,6.18,0,0,1-.42-1.3,4,4,0,0,1-.08-.5,2.45,2.45,0,0,0-.27.24c-.81,1.08-1.62,2.16-2.41,3.27-.39.54-.54.61-1.2.46a1.53,1.53,0,0,1-1.36-1.48c-.11-1.74-.21-3.48-.32-5.22,0-.23,0-.46,0-.69l-.11,0c-.48.83-1,1.65-1.43,2.5-.35.67-.63,1.38-.93,2.08-.2.46-.37.55-.87.39l-.08,0a1.41,1.41,0,0,1-1.26-1.48,7.36,7.36,0,0,0-.17-1,10.26,10.26,0,0,0-3.41,1.73L60.28,69a3,3,0,0,1,.89,1.72A2.2,2.2,0,0,1,59.67,73a3.12,3.12,0,0,1-2.23.1,2,2,0,0,1-1.38-2.57,5.14,5.14,0,0,1,1.21-2.16l.27-.31-2.21-1.9c-.15.28-.28.56-.43.83a5.53,5.53,0,0,1-3.71,3,5.33,5.33,0,0,1-1.69.06,2.59,2.59,0,0,1-2.28-2.25c0-.23-.08-.46-.15-.8-.51.66-1,1.23-1.42,1.82s-.83,1.16-1.23,1.76a.92.92,0,0,1-1.23.48,1.53,1.53,0,0,1-1.35-1.44c-.12-1.39-.22-2.79-.33-4.19,0-.08,0-.17,0-.35a1.84,1.84,0,0,0-.17.28q-.83,2.56-1.64,5.15c-.15.48-.38.64-.86.51a8.64,8.64,0,0,1-1-.36,1,1,0,0,1-.6-.77c-.16-1-.34-1.94-.53-3-.41.5-.82,1-1.19,1.49-.56.75-1.09,1.52-1.65,2.28a.92.92,0,0,1-.35.33,2.06,2.06,0,0,1-2.06-1c-.17-.82-.27-1.64-.4-2.47,0-.11,0-.23-.05-.47-.18.22-.29.36-.41.49-.6.67-1.19,1.33-1.8,2-1.19,1.27-3.34.12-3.65-1.17A8.25,8.25,0,0,1,25,65a5,5,0,0,1,1.29-2.79,3.38,3.38,0,0,1,3.73-.66,6.64,6.64,0,0,1,1,.81c.07-.33.15-.7.21-1.07a.67.67,0,0,1,.78-.62l1.43,0c.4,0,.52.17.45.6a35.52,35.52,0,0,0-.69,7.56,3.15,3.15,0,0,0,0,.44c0,.1,0,.2.09.35a2.4,2.4,0,0,0,.23-.25c1-1.14,1.92-2.27,2.87-3.42a.87.87,0,0,0,.2-.46c.05-.56.07-1.13.09-1.7a.51.51,0,0,1,.53-.54c.55,0,1.1,0,1.65,0,.35,0,.49.19.45.59-.14,1.58-.23,3.15-.33,4.73a.89.89,0,0,0,.11.51c.16-.61.29-1.23.46-1.83a25.26,25.26,0,0,1,1.82-5.13,1,1,0,0,1,1-.64c.42,0,.83,0,1.25,0s.56.15.51.7c-.18,2-.35,4.07-.51,6.1a7.82,7.82,0,0,0,.08,1.07,2.33,2.33,0,0,0,.09.23c.18-.22.32-.41.46-.59.79-.93,1.55-1.88,2.37-2.79a2,2,0,0,0,.51-1,4,4,0,0,1,1.57-2.72,3.42,3.42,0,0,1,2.36-.65,1.66,1.66,0,0,1,1.4,1.48A5.18,5.18,0,0,1,51,67.62a2.38,2.38,0,0,1-.87.51c-.27.09-.37.19-.31.46.16.88.13.93,1,.77A3.67,3.67,0,0,0,53,68.09a27.23,27.23,0,0,0,1.74-2.37.56.56,0,0,0,0-.49c-1-1.84.43-3.58,2.43-3.63a2.91,2.91,0,0,1,2,.76,6.16,6.16,0,0,1,1.51,2c.13.27.11.45-.19.55l-1.1.36c-.32.11-.48,0-.62-.32a19.59,19.59,0,0,0-1-1.8,2.16,2.16,0,0,0-.68-.63.59.59,0,0,0-1,.56A4.46,4.46,0,0,0,57,65.67,16.61,16.61,0,0,0,58.36,67.2Zm-30.58,2a2.4,2.4,0,0,0,.29-.15,9,9,0,0,0,2.62-3,1.55,1.55,0,0,0,.19-.8,5.1,5.1,0,0,0-1.44-3.05c-.4-.39-.62-.36-.93.09a7,7,0,0,0-1.15,3.79A8.43,8.43,0,0,0,27.78,69.24Zm48.05,0a1.06,1.06,0,0,0,.28-.09A9.13,9.13,0,0,0,78.9,66a1.08,1.08,0,0,0,.1-.56,5.21,5.21,0,0,0-1.12-2.82c-.62-.81-1-.78-1.47.11a7.64,7.64,0,0,0-.9,4.44C75.57,67.82,75.72,68.51,75.83,69.24ZM58.15,68.8a2.92,2.92,0,0,0-.69,2.31,1.83,1.83,0,0,0,.52.94c.54.52,1.09.32,1.29-.41A3.27,3.27,0,0,0,58.15,68.8Zm-8.44-1.09c1-.23,1.8-3.44,1.3-5.18A7.14,7.14,0,0,0,49.71,67.71Zm14.38-1.18h.13c0-1.51,0-3,0-4.55s.2-3,.3-4.53A23.41,23.41,0,0,0,64.09,66.53ZM49.46,69.27c-.38-2.39-.56-4.66,1-6.79C48.58,64,48.48,67.43,49.46,69.27ZM27.78,62.61c-1.46,1.36-1.65,4.72-.64,6.12-.07-.91-.21-2-.22-3A6.42,6.42,0,0,1,27.78,62.61Zm47.62,6.3a8.18,8.18,0,0,1,.5-6.32A5.6,5.6,0,0,0,75.4,68.91ZM38.64,69l.24-5.17A8.81,8.81,0,0,0,38.64,69ZM55.89,63c-.67,1.29.6,3.84,2,4.11A5.23,5.23,0,0,1,55.89,63Z" transform="translate(-11.86 -16.53)"/><path class="cls-1" d="M58.94,46.76l2.51,1.89a.43.43,0,0,1,.12.68,13.31,13.31,0,0,1-8.38,6.08,12.22,12.22,0,0,0-2.14.63,10.51,10.51,0,0,1-7.68.37,12.47,12.47,0,0,1-3.08-1.88,2.65,2.65,0,0,0-.91-.44A4.87,4.87,0,0,1,37,52.63a10.84,10.84,0,0,1-2.09-3.14.61.61,0,0,1,.18-.82,7,7,0,0,1,3.48-1.9,1.38,1.38,0,0,0,.25-.08,4.74,4.74,0,0,1-.44-2.58,2.33,2.33,0,0,0-.53-1.88,3.26,3.26,0,0,1,.65-4.15l.38-.35-.75-.33A9.69,9.69,0,0,1,33.37,33a4,4,0,0,1-.3-3c.32-1.21.72-2.39,1-3.6a8.52,8.52,0,0,0,.27-1.8,3,3,0,0,0-.3-1c0-.14-.12-.34-.07-.4a.56.56,0,0,1,.43-.15c2.15.29,4.29.6,6.09,2,.67-.47,1.32-.92,2-1.4a.36.36,0,0,0,.11-.3,2.33,2.33,0,0,1,1-2.34,22.33,22.33,0,0,1,2.27-1.57,7.74,7.74,0,0,0,2.76-2.81c.16-.3.35-.29.51,0a7.44,7.44,0,0,0,2.68,2.75c.7.46,1.41.91,2.09,1.38a3.16,3.16,0,0,1,1.22,1.67.74.74,0,0,1,.07.43c-.22.64.21.9.64,1.18s.74.55,1.13.8a.53.53,0,0,0,.46,0,10.76,10.76,0,0,1,4.8-1.71c.38-.06.76-.12,1.15-.15s.53.17.32.52a2.55,2.55,0,0,0-.23,2.07c.31,1.12.62,2.24,1,3.33a5.45,5.45,0,0,1-1.55,6,9.9,9.9,0,0,1-3.88,2.56c-.31.1-.38.25-.22.53A3.38,3.38,0,0,1,59,41a.87.87,0,0,0-.06.59A6.15,6.15,0,0,1,58.94,46.76ZM52.05,36.61a15.76,15.76,0,0,1,1.47-.8,4,4,0,0,0,2.4-3.44c.34-2.16-1.69-5-3.6-5.8a1.69,1.69,0,0,0-1.39,0c-.35.16-.68.37-1,.55a.43.43,0,0,0-.18.64c.17.37.3.75.47,1.12a1,1,0,0,1-.27,1.25c-1.29,1.2-.9,1.23-2.2,0a.47.47,0,0,1-.1-.1,1,1,0,0,1-.2-1.08c.16-.4.33-.79.49-1.19.09-.22.14-.42-.11-.59-1.42-1-2.09-1-3.17-.2-1.91,1.39-3.19,3.15-2.87,5.67a3.66,3.66,0,0,0,1.63,2.8,20.56,20.56,0,0,0,1.86,1A9.58,9.58,0,0,1,45.41,35a4.6,4.6,0,0,1,.45-.92,7.24,7.24,0,0,0,.53-1.17,1,1,0,0,0-.61-1.33c-.66-.16-1.33-.27-2.05-.41.06.14.09.26.15.38a2.23,2.23,0,0,0,1.45,1.23c.12,0,.21.22.31.34-.15,0-.32.16-.46.13a2.8,2.8,0,0,1-2-2.29c0-.41.14-.54.54-.43.63.17,1.27.34,1.9.49,1.13.28,1.56.91,1.23,2a8.34,8.34,0,0,1-.8,1.68,1.6,1.6,0,0,0,.54,2.29c.41.27.85.49,1.27.75a3.37,3.37,0,0,1,1.57,3.45,1.48,1.48,0,0,1-1.57,1.33,1.6,1.6,0,0,1-1.45-1.73c0-.15,0-.3,0-.5A2.64,2.64,0,0,0,45.73,44a3,3,0,0,0,4.43-.07A8.1,8.1,0,0,0,52,38.87,3.62,3.62,0,0,0,51,36a8.2,8.2,0,0,1-.89-1.13,2.17,2.17,0,0,1,1.33-3.61L54,30.54c.38-.1.54,0,.52.41a2.45,2.45,0,0,1-1,1.81,3.58,3.58,0,0,1-1,.52c-.11,0-.28-.08-.42-.13.1-.12.19-.25.3-.36s.14,0,.21-.06a2.06,2.06,0,0,0,1.33-1.56c-.85.19-1.71.36-2.56.59a1.52,1.52,0,0,0-1,2.41A29,29,0,0,0,52.05,36.61ZM48.57,50.3a15.57,15.57,0,0,1,3.6-2.51,8.12,8.12,0,0,1,5.89-1.07c.28.06.39,0,.51-.28a5,5,0,0,0,.34-3,13.44,13.44,0,0,0-.33-1.36L58.42,42a1.9,1.9,0,0,1-.22.33,3.57,3.57,0,0,1-3.14,1.27,2.5,2.5,0,0,1-1.5-4.41l-1-1.06-.08.12a.66.66,0,0,0,0,.14,8.33,8.33,0,0,1-.92,4.27c-.84,1.7-2,2.91-4.13,2.75a2.79,2.79,0,0,1-2.24-1.28,3.18,3.18,0,0,1,1.15-4.38.54.54,0,0,1,.21-.08c.46-.1.61.06.51.52a3.61,3.61,0,0,0-.15.92,1,1,0,0,0,1,1,.93.93,0,0,0,1-.84,2.76,2.76,0,0,0-1.27-3c-.61-.39-1.23-.77-1.8-1.12L44.41,39a.22.22,0,0,0,0,.08c-.12.55-.27,1.09-.35,1.65a3.09,3.09,0,0,1-1.74,2.53,3.91,3.91,0,0,1-3.39.08,4.79,4.79,0,0,0,.41,3.19c0,.08.23.12.35.12a11.67,11.67,0,0,1,5.82,1.65C46.5,48.91,47.49,49.6,48.57,50.3ZM63.14,23.66c-.34.05-.63.1-.92.13a8.33,8.33,0,0,0-6.48,3.79.62.62,0,0,0-.07.73,14.55,14.55,0,0,0,.68,1.3,4,4,0,0,0,3.23,2,1.4,1.4,0,0,0,1.49-1.53,1.7,1.7,0,0,0-1.55-1.67c-.4,0-.76.1-.89.53a1,1,0,0,0,.48,1c.11.06.25.07.37.13a1.42,1.42,0,0,1,.28.22c-.1.08-.19.23-.3.25-.41.06-1-.38-1.22-.91a1.06,1.06,0,0,1,.25-1.3,1.68,1.68,0,0,1,2.18,0,2.14,2.14,0,0,1,.79,2.38,1.84,1.84,0,0,1-2,1.33,3.57,3.57,0,0,1-1.36-.36,19.59,19.59,0,0,1-1.76-1.13,8.87,8.87,0,0,1,.11,1.3c-.08,2-.8,3.68-2.87,4.45a3.09,3.09,0,0,0-.83.51.42.42,0,0,0-.08.41c.39.58.81,1.14,1.22,1.69a12.17,12.17,0,0,1,.41-1.9,2,2,0,0,1,1.44-1.17,2.47,2.47,0,0,1,3,1.45l.54-.19a9.6,9.6,0,0,0,4.28-3.41,4.13,4.13,0,0,0,.75-3.59c-.15-.62-.35-1.23-.51-1.85C63.34,26.77,62.52,25.34,63.14,23.66Zm-28.39,0-.09.12a4,4,0,0,1-.08,2.8c-.26.89-.55,1.76-.82,2.65a4.57,4.57,0,0,0,.16,3.89,9.53,9.53,0,0,0,5.19,4.23c.28.09.4,0,.53-.24a3.53,3.53,0,0,1,2.49-2s0,0,.1-.1a5.54,5.54,0,0,1-.91-4.28,17.83,17.83,0,0,1-1.79,1.06,2.38,2.38,0,0,1-2.47-.07,2,2,0,0,1-.73-2.23,2.19,2.19,0,0,1,1.83-1.55,1.3,1.3,0,0,1,1.5,1,1.52,1.52,0,0,1-1.13,1.52c-.14,0-.32-.12-.47-.19.11-.08.2-.22.33-.25a1,1,0,0,0,.79-1.08.92.92,0,0,0-1-.56,1.73,1.73,0,0,0-1.4,1.94,1.47,1.47,0,0,0,1.75,1.26,4,4,0,0,0,.82-.21,5.09,5.09,0,0,0,2.91-3.25.54.54,0,0,0-.07-.41,7.61,7.61,0,0,0-4.61-3.51C36.6,24,35.67,23.81,34.75,23.62ZM61.19,49.09a6,6,0,0,0-5.83-2,13.42,13.42,0,0,0-6.31,3.36c-.23.2-.09.3,0,.47.91,1.16,1.82,2.31,2.69,3.5.47.64.45.69,1.23.54a10.89,10.89,0,0,0,4.6-2.09A14.94,14.94,0,0,0,61.19,49.09ZM50.71,54l.08-.08c-.08-.13-.15-.27-.24-.39-.35-.45-.69-.9-1-1.33a14.1,14.1,0,0,0-7.59-4.77,6.39,6.39,0,0,0-6.36,1.45c-.23.22-.33.39-.15.68.43.67.8,1.39,1.28,2a4.63,4.63,0,0,0,2.65,2,1.16,1.16,0,0,0,.69,0,13.46,13.46,0,0,1,6.52-1,7.93,7.93,0,0,1,3.61,1Zm-7.6-30.54a11.65,11.65,0,0,1,4-1.12c.12,0,.24-.16.32-.27.38-.49.75-1,1.12-1.51.22-.3.45-.31.68,0,.37.49.72,1,1.1,1.47a1.14,1.14,0,0,0,.53.33c.84.2,1.69.35,2.52.56a14.21,14.21,0,0,1,1.4.55,5.47,5.47,0,0,0-.16-.9,3.79,3.79,0,0,0-1.78-1.82,13.69,13.69,0,0,1-3-2.25c-.31-.36-.6-.73-.93-1.13A10.62,10.62,0,0,1,45,20.69a7.08,7.08,0,0,0-1.3,1A1.79,1.79,0,0,0,43.11,23.43Zm-2.75,30.5a8.79,8.79,0,0,0,5.93,2.56,11.36,11.36,0,0,0,5.34-1.23,9.55,9.55,0,0,0-3.06-1.81,12.5,12.5,0,0,0-4.83-.34A9.46,9.46,0,0,0,40.36,53.93Zm8.53-27.68c.42-.45.82-.83,1.17-1.25a1.31,1.31,0,0,1,1.15-.46,9.47,9.47,0,0,1,4.37,1.28c.67.38.67.37,1.17-.21,0,0,0-.08.07-.15l-1.37-1a9,9,0,0,0-4.53-1.63.91.91,0,0,0-.61.24,12.18,12.18,0,0,0-1,1.11c-.26.29-.49.28-.74,0a5.34,5.34,0,0,1-.6-.66,1.54,1.54,0,0,0-1.76-.62A10.92,10.92,0,0,0,41,25.5c.54.71.54.7,1.29.29a9.52,9.52,0,0,1,4.42-1.25,1.25,1.25,0,0,1,1,.43ZM39.26,39.42c0,1.09.32,1.73,1.07,2A2.57,2.57,0,0,0,43.84,39a7.32,7.32,0,0,0-1.14-3.35.43.43,0,0,0-.36-.12,2.44,2.44,0,0,0-1.89,1.19,8.72,8.72,0,0,1-.51.73A3.65,3.65,0,0,0,39.26,39.42Zm3.55-11.6c.52-.42,1-.85,1.51-1.22,1.43-1,2.47-.81,3.86.26a.71.71,0,0,1,.24.91c-.14.35-.28.7-.45,1A.87.87,0,0,0,48.21,30c.64.61.61.6,1.24,0a.88.88,0,0,0,.23-1.15,4.67,4.67,0,0,1-.42-1c0-.25-.07-.64.08-.79A2.89,2.89,0,0,1,52,26a5,5,0,0,1,1.55.76,15.39,15.39,0,0,1,1.34,1.16l1-1.3a1.36,1.36,0,0,0-.1-.14A9,9,0,0,0,51.1,25a1.18,1.18,0,0,0-.72.34,15.35,15.35,0,0,0-1.1,1.18.45.45,0,0,1-.78,0c-.33-.38-.7-.74-1-1.14a1,1,0,0,0-1-.38,17,17,0,0,0-2.36.47,21.76,21.76,0,0,0-2.3,1ZM58.74,39.16l-.12,0a.39.39,0,0,0-.08.1,2.41,2.41,0,0,1-4.14.32c-.16-.24-.3-.17-.47,0a1.94,1.94,0,0,0-.75,2A1.83,1.83,0,0,0,54.64,43a3,3,0,0,0,3.16-.95A3.79,3.79,0,0,0,58.74,39.16Zm-4.31-.95a1.93,1.93,0,0,0,2,1.89,1.94,1.94,0,1,0-.09-3.87A1.92,1.92,0,0,0,54.43,38.21ZM39,38.32A2.92,2.92,0,0,0,38,41.7a2.66,2.66,0,0,0,3.18,1.44c1.17-.25,2-1,2.07-1.77a3,3,0,0,1-3.51.28C38.56,40.86,38.71,39.61,39,38.32ZM48.9,20.85c-.4.55-.75,1-1.08,1.52a.36.36,0,0,0,0,.35c.34.38.7.75,1.08,1.15.38-.41.73-.77,1.06-1.15a.37.37,0,0,0,0-.34C49.66,21.89,49.3,21.42,48.9,20.85ZM43.62,36l-.07.12.8,2.36c.31-.47.57-.84.79-1.23a.41.41,0,0,0-.11-.37C44.57,36.58,44.09,36.3,43.62,36Z" transform="translate(-11.86 -16.53)"/><path class="cls-1" d="M21.2,70.61A3.93,3.93,0,0,1,18.81,72c-2,.35-4,.21-5.5-1.41A5.45,5.45,0,0,1,12,67.43a13.4,13.4,0,0,1,.66-6.31A7.19,7.19,0,0,1,18,56.21a3.29,3.29,0,0,1,4.29,3.16c0,.34,0,.69,0,1a.48.48,0,0,1-.49.53c-.47,0-.95.08-1.42.09s-.53-.17-.49-.56A12,12,0,0,0,20,58.77a1.55,1.55,0,0,0-2.78-1.11,10.58,10.58,0,0,0-1.53,2.12,13.14,13.14,0,0,0-1.43,7.71,5.17,5.17,0,0,0,.87,2.42,3,3,0,0,0,3,1.23,3.38,3.38,0,0,0,3.16-2.87,8.23,8.23,0,0,0,.19-3c0-.35-.16-.52-.56-.52a5.63,5.63,0,0,1-1.15-.13c-.12,0-.21-.17-.32-.26.1-.09.2-.26.31-.26,1.13,0,2.26,0,3.39,0a.71.71,0,0,1,.42.53A28.92,28.92,0,0,1,23,71.92a1.62,1.62,0,0,1-1.7,1.4c-.39,0-.51-.12-.44-.5l.42-2.14ZM15.78,71a4.39,4.39,0,0,1-1.85-3.77,21.79,21.79,0,0,1,0-2.68,11.35,11.35,0,0,1,1.77-5.46c.12-.17.22-.35.33-.53l-.11-.09a1.76,1.76,0,0,1-.14.23,11.72,11.72,0,0,0-1.94,9.84A3.21,3.21,0,0,0,15.78,71Z" transform="translate(-11.86 -16.53)"/><path class="cls-1" d="M66.43,74.77a4,4,0,0,0,0,2.91h-.85c.38-.72.08-1.48.19-2.22l-.13,0-1,2.29-1.05-2.29-.13,0a7.88,7.88,0,0,0,.19,2.22H63c.39-.38.39-2.63,0-2.9.49-.16.74.07.91.54s.49,1.08.79,1.72c.29-.64.58-1.19.78-1.77A.65.65,0,0,1,66.43,74.77Z" transform="translate(-11.86 -16.53)"/><path class="cls-1" d="M75.12,77.68c-.4.13-.66-.1-.9-.46s-.48-.64-.77-1c-.25.67-.18,1.23.15,1.49h-1a3.21,3.21,0,0,0,0-3c.57,0,1.08,0,1.57.09a.7.7,0,0,1,.68.66.7.7,0,0,1-.51.74l-.23.14Zm-1.81-1.39a2.55,2.55,0,0,0,.87-.37.69.69,0,0,0,0-.68c-.13-.19-.45-.24-.7-.34a2.41,2.41,0,0,0-.21.5A6.12,6.12,0,0,0,73.31,76.29Z" transform="translate(-11.86 -16.53)"/><path class="cls-1" d="M48,76.2a1.41,1.41,0,0,1-1.37,1.55,1.54,1.54,0,0,1,0-3.06A1.41,1.41,0,0,1,48,76.2Zm-.39.06c-.09-.35-.14-.63-.23-.89a.75.75,0,0,0-.74-.54.79.79,0,0,0-.8.52,2.12,2.12,0,0,0,0,1.81.8.8,0,0,0,1.39.09A4.47,4.47,0,0,0,47.62,76.26Z" transform="translate(-11.86 -16.53)"/><path class="cls-1" d="M69.52,74.76c.46,0,.88,0,1.29,0s.87.38.87.8-.24.73-.86.83c-.17,0-.35,0-.62.06l.12,1.22h-.75A3.83,3.83,0,0,0,69.52,74.76Zm.7,1.64c.37-.15.71-.19.86-.38a1,1,0,0,0,.07-.75.53.53,0,0,0-.71-.35c-.11,0-.18.32-.21.49S70.22,75.94,70.22,76.4Z" transform="translate(-11.86 -16.53)"/><path class="cls-1" d="M61.91,75.29a1.34,1.34,0,0,0-1.38-.37.34.34,0,0,0-.14.21.57.57,0,0,0,0,.26c0,.24.06.65.14.67.36.06.78.16,1.09-.23v.53c-.35,0-.71-.08-1.07-.1,0,0-.15.14-.16.22a4.28,4.28,0,0,0,0,.8.41.41,0,0,0,.28.25c.51,0,1,.1,1.36-.54,0,.57-.24.74-.72.71s-1.07,0-1.63,0a3.56,3.56,0,0,0,0-2.93h2.13Z" transform="translate(-11.86 -16.53)"/><path class="cls-1" d="M77.44,74.63l1.28,3h-.65c.09-.28-.07-.94-.27-1a2.1,2.1,0,0,0-1.07.1.52.52,0,0,0,0,.87h-.59Zm.36,1.89-.45-1.07-.12,0-.4,1Z" transform="translate(-11.86 -16.53)"/><path class="cls-1" d="M56.52,74.82l0,.51c-.19-.16-.33-.36-.49-.39a.83.83,0,0,0-.67.08c-.22.2-.14.5.1.7s.42.27.63.42c.49.33.66.75.46,1.16a1,1,0,0,1-1.22.38c-.14,0-.3-.05-.49-.09l-.1-.65a3.61,3.61,0,0,0,.66.58.55.55,0,1,0,.55-.94c-.25-.17-.49-.33-.73-.51a.74.74,0,0,1-.27-1,.78.78,0,0,1,1-.37C56.11,74.77,56.29,74.78,56.52,74.82Z" transform="translate(-11.86 -16.53)"/><path class="cls-1" d="M84.52,74.64l1.28,3h-.68a.69.69,0,0,0-.23-.91,1.43,1.43,0,0,0-1.09.06.52.52,0,0,0,0,.85h-.59Zm-.06.83-.12,0L83.9,76.5h1Z" transform="translate(-11.86 -16.53)"/><path class="cls-1" d="M53.68,77.68H53c.09-.27-.05-.94-.25-1a2.23,2.23,0,0,0-1.1.1.51.51,0,0,0,0,.85h-.57l1.28-3Zm-1.43-2.37-.47,1.19h1Z" transform="translate(-11.86 -16.53)"/><path class="cls-1" d="M79.72,75.34l.09-.58h2.35l0,.54a.79.79,0,0,0-.95-.4c-.21.95-.09,2.54.24,2.78h-.94a2.54,2.54,0,0,0,.21-.66c0-.69,0-1.39,0-2.09C80.31,74.84,79.94,74.85,79.72,75.34Z" transform="translate(-11.86 -16.53)"/><path class="cls-1" d="M50,77.68h-.9a4,4,0,0,0,0-2.92h.89A4.49,4.49,0,0,0,50,77.68Z" transform="translate(-11.86 -16.53)"/><path class="cls-1" d="M43.4,77.59a4.06,4.06,0,0,0-.18-2.83h.9a3,3,0,0,0-.18.65c0,.53,0,1.07,0,1.61s-.35.79-.73.71a.76.76,0,0,1-.33-.24s0-.15.09-.22l.32.22Z" transform="translate(-11.86 -16.53)"/><path class="cls-1" d="M48.75,48.34c-.54-.19-1.06-.36-1.57-.56-.09,0-.13-.22-.2-.34.13,0,.29-.11.38-.06a2.77,2.77,0,0,0,2.81,0c.09-.05.23,0,.34,0s-.06.32-.14.36C49.85,48,49.32,48.14,48.75,48.34Z" transform="translate(-11.86 -16.53)"/><path class="cls-1" d="M49.44,29.24c-.19.13-.37.35-.58.38s-.53-.18-.52-.52a.45.45,0,0,1,.52-.48c.21,0,.39.26.58.4Zm-.07-.13c-.27-.15-.41-.29-.54-.28s-.3.21-.28.28a.47.47,0,0,0,.31.33C49,29.45,49.11,29.28,49.37,29.11Z" transform="translate(-11.86 -16.53)"/></svg>