<svg id="Camada_1"  height="60" width="60" data-name="Camada 1" xmlns="http://www.w3.org/2000/svg" viewBox="0 0 92.12 50.18"><defs><style>.cls-1{fill:#fff;}</style></defs><path class="cls-1" d="M3.3,56.86a.13.13,0,0,0,0,.06l.06.06a26.93,26.93,0,0,1,1.45-2.83,10,10,0,0,1,1.17-2,1.17,1.17,0,0,1,1.52-.29,1,1,0,0,1,.25,1.31c-.65,1.22-1.34,2.43-2,3.66-.47.88-.93,1.76-1.36,2.67a1.26,1.26,0,0,1-1.3.79A18.43,18.43,0,0,1,3.3,56.86Z" transform="translate(-3.07 -31.32)"/><path class="cls-1" d="M32.59,35.23a12.38,12.38,0,0,0-2.37.77c-.67.25-1.36.46-2,.77s-1.18.15-1.4-.35a1.21,1.21,0,0,1,.72-1.5c.06,0,.15,0,.16-.07l-.13-.05a20.83,20.83,0,0,1,3.26.17A6.59,6.59,0,0,1,32.59,35.23Z" transform="translate(-3.07 -31.32)"/><path class="cls-1" d="M25.15,37.49a.94.94,0,0,1-.52,1c-1.13.57-2.27,1.12-3.36,1.74a27.4,27.4,0,0,0-2.69,1.53l-.13.08c-.79.44-1.31.39-1.66-.19s-.06-1,.64-1.47a50.46,50.46,0,0,1,6-3.44C24.34,36.29,25.16,36.74,25.15,37.49Z" transform="translate(-3.07 -31.32)"/><path class="cls-1" d="M15.18,43.8a.65.65,0,0,1-.14.54c-.55.5-1,1.06-1.6,1.54a14.83,14.83,0,0,0-1.2,1.18c-.85.9-1.66,1.82-2.53,2.69a.85.85,0,0,1-1.31.07c-.43-.37-.47-.76-.09-1.3a21.25,21.25,0,0,1,2-2.43c.94-1,1.91-1.92,2.87-2.87a1.08,1.08,0,0,1,1.81.05A.64.64,0,0,1,15.18,43.8Z" transform="translate(-3.07 -31.32)"/><path class="cls-1" d="M94,45.69a21.74,21.74,0,0,0-8-10.6,19.16,19.16,0,0,0-8.78-3.6,26.3,26.3,0,0,0-5.61,0,23.87,23.87,0,0,0-5.09.92,27.88,27.88,0,0,0-7.19,3.56,22,22,0,0,1-9.27,3.82,17.86,17.86,0,0,1-8.14-.83c-1.74-.61-3.3-1.6-5-2.29a21.4,21.4,0,0,0-4.32-1.41.82.82,0,0,0-.67,0c-.49.22-1,.32-1.54.54-.77.33-1.58.57-2.36.9a.77.77,0,0,1-1-.27.87.87,0,0,1,.19-1.06,2.68,2.68,0,0,1,.52-.36c.07,0,.15-.11.05-.2s-.13,0-.2,0a20.89,20.89,0,0,0-6.14,1,25,25,0,0,0-8.78,4.78A26.66,26.66,0,0,0,4.26,52.66a16,16,0,0,0-1,4.2c-.06.11-.08.23.08.21s.14-.15.18-.24c.62-1.25,1.33-2.45,1.95-3.69a4.45,4.45,0,0,1,.72-1A1,1,0,0,1,7.4,52a.79.79,0,0,1,.27,1,1.88,1.88,0,0,1-.18.38c-1,1.79-2,3.53-2.86,5.37-.34.71-.7,1.34-1.53,1.53a7.12,7.12,0,0,0,0,.8,22.63,22.63,0,0,0,2.39,8.88,20.67,20.67,0,0,0,9.64,9.4,21.69,21.69,0,0,0,11.85,2,22.41,22.41,0,0,0,11.44-4.6,34.66,34.66,0,0,1,6.1-4,12.13,12.13,0,0,1,11.76.49c1.35.78,2.65,1.64,4,2.37a21,21,0,0,0,15.47,1.74A25.83,25.83,0,0,0,95,55.67,21.79,21.79,0,0,0,94,45.69ZM31.82,63.49c-1.7,2.37-4.11,3.17-6.93,3.11a7.91,7.91,0,0,1-7.54-6.47,8.45,8.45,0,0,1,4.73-9.2,7.89,7.89,0,0,1,8.67.85A7.39,7.39,0,0,1,33.43,57c0,.38,0,.77.06,1.16A8.94,8.94,0,0,1,31.82,63.49ZM42.47,59c-.06.24-.08.49-.13.73a2.29,2.29,0,0,1-2.08,2c-1.35.17-2.71.27-4.06.42-.39,0-.49-.1-.44-.47.26-1.67.51-3.35.75-5,.14-.92.29-1.85.41-2.77,0-.47.24-.65.73-.67.94,0,1.86-.16,2.8-.24a8.17,8.17,0,0,1,1.21,0,1.15,1.15,0,0,1,1.22,1.19A2.72,2.72,0,0,1,41.51,57C42.7,57.32,42.66,58.13,42.47,59ZM45,52.94c-.23,1.55-.47,3.14-.7,4.73l-.48,3.19a.41.41,0,0,0,0,.11c0,.24-.14.4-.41.37s-.2-.29-.18-.45c.16-1.11.34-2.23.51-3.34.24-1.57.48-3.14.71-4.71,0-.23.08-.38.35-.34S45,52.74,45,52.94Zm6.3,7.55a.41.41,0,0,1-.54,0,4.31,4.31,0,0,1-.44-.59l-1.83-2.79c-.07-.1-.15-.26-.24-.27a9.48,9.48,0,0,0-2,.15c-.15,0-.09.25-.11.38-.17,1.12-.35,2.24-.51,3.35,0,.27-.11.45-.42.41s-.16-.3-.14-.46c.33-2.3.68-4.6,1-6.91,0-.4.12-.8.17-1.2s.19-.36.43-.32.16.26.14.42c-.16,1.08-.31,2.17-.48,3.25-.06.36.07.5.34.45l.2,0c1.26.19,1.94-.63,2.61-1.49S51,53,51.8,52l.14-.16c.17-.19.42-.3.6-.14s-.1.3-.2.42Q50.75,54.09,49.15,56a.52.52,0,0,0-.07.74c.74,1.1,1.44,2.21,2.15,3.33C51.3,60.21,51.52,60.35,51.3,60.49Zm6.77-8.93-2.32.2c-.47,0-1,.08-1.42.14a.88.88,0,0,0-.82.84c-.11.8-.19,1.61-.28,2.42-.06.45.28.31.49.29l3.59-.29h.37c.13,0,.3,0,.33.17s-.11.27-.29.29l-1.79.18c-.79.07-1.58.16-2.37.2-.31,0-.44.11-.47.42-.1.92-.23,1.85-.33,2.78,0,.54.2.78.77.74l3.16-.26.32,0c.17,0,.41-.07.45.17s-.21.3-.4.32c-1.24.11-2.49.23-3.74.3-.76,0-1.17-.42-1.13-1.4.24-2,.48-4.21.76-6.41a1.31,1.31,0,0,1,1.11-1.15A29,29,0,0,1,57,51.16c.34,0,.67,0,1-.07s.42-.09.44.2S58.25,51.55,58.07,51.56ZM74,56.18a10.08,10.08,0,0,1-.84,3.53,5.6,5.6,0,0,1-4.56,3.11c-3.11.32-6.22.58-9.33.89-.41,0-.49-.08-.44-.45q.36-2.7.7-5.4c.45-3.53.89-7.07,1.34-10.61.07-.57.15-1.15.22-1.73a.45.45,0,0,1,.47-.45c2.65-.23,5.31-.47,8-.72l1.19-.11A3.72,3.72,0,0,1,74,45.5a3.22,3.22,0,0,1,.66,2,9.07,9.07,0,0,1-.36,2.93,3.94,3.94,0,0,1-1.79,2.22c-.23.15-.32.25,0,.42A2.85,2.85,0,0,1,74,56.18ZM89.18,43.79l-.12.68c-.19,1.11-.19,1.11-1.32,1.25l-6.41.78a1.46,1.46,0,0,0-1.39,1.3c-.19.92-.29,1.85-.43,2.77-.05.28.08.33.33.31,2.18-.19,4.37-.35,6.55-.54.39,0,.55,0,.5.46-.09.75-.16,1.51-.23,2.27,0,.37-.33.36-.59.4l-6.33.93c-1,.16-1,.18-1.14,1.17-.1.63-.23,1.25-.33,1.88-.17,1,.17,1.43,1.23,1.34l6.91-.69c.55-.06.63,0,.55.55s-.21,1.28-.32,1.93a.57.57,0,0,1-.56.52c-2,.26-4,.58-6,.79a22.71,22.71,0,0,1-4,.31,1.75,1.75,0,0,1-1.61-1.39,6.38,6.38,0,0,1-.08-3c.55-3.25,1.22-6.48,1.7-9.75a6.62,6.62,0,0,1,1.43-3.48,4.72,4.72,0,0,1,2.58-1.45,18.68,18.68,0,0,1,3.42-.4l4.19-.23C89.37,42.44,89.37,42.44,89.18,43.79Z" transform="translate(-3.07 -31.32)"/><path class="cls-1" d="M69.82,56.5c0,.25-.07.65-.15,1a2,2,0,0,1-1.84,1.64l-3.69.33c-.6,0-.65,0-.58-.59.13-1,.28-2.1.41-3.15,0-.23.13-.29.34-.31,1.4-.12,2.81-.27,4.22-.36C69.47,55.05,69.85,55.45,69.82,56.5Z" transform="translate(-3.07 -31.32)"/><path class="cls-1" d="M68.29,48.17c2-.12,2.27.14,2.07,1.83-.14,1.21-.54,1.67-1.73,1.82s-2.43.25-3.64.38c-.38,0-.55,0-.49-.48.14-.94.24-1.88.34-2.83,0-.31.17-.42.47-.45C66.42,48.35,67.52,48.24,68.29,48.17Z" transform="translate(-3.07 -31.32)"/><path class="cls-1" d="M37.31,61.53c-1,0-1,0-.84-.71s.28-1.77.4-2.66a.5.5,0,0,1,.52-.52c1.11-.08,2.21-.2,3.32-.25s1.26.29,1.23,1.25a5.09,5.09,0,0,1-.27,1.45,1.48,1.48,0,0,1-1,1A30.54,30.54,0,0,1,37.31,61.53Z" transform="translate(-3.07 -31.32)"/><path class="cls-1" d="M42.31,54.65a2.06,2.06,0,0,1-2.15,2.24c-.9.07-1.79.15-2.68.26-.35,0-.47,0-.41-.39.13-.87.27-1.74.39-2.61,0-.26.14-.38.4-.4,1.12-.08,2.24-.22,3.37-.26C42,53.45,42.34,53.87,42.31,54.65Z" transform="translate(-3.07 -31.32)"/></svg>