<svg id="Camada_1" height="60" width="60"  data-name="Camada 1" xmlns="http://www.w3.org/2000/svg" viewBox="0 0 79.55 13.56"><defs><style>.cls-1{fill:#fff;}</style></defs><path class="cls-1" d="M81,48.27a2.51,2.51,0,0,1,1.38,2.49c0,1,0,2,0,3a.83.83,0,0,1-.92.9h-.23c-.71,0-.89-.17-.9-.89,0-.92,0-1.84,0-2.77a3.43,3.43,0,0,0-.16-1,1.2,1.2,0,0,0-1.5-.66.7.7,0,0,0-.4.75v3.63c0,.74-.2.93-.94.93h-.4a.68.68,0,0,1-.74-.78c0-.84,0-1.68,0-2.52V42.48c0-.75.2-.95.93-.95,1,0,2,0,3,.09a2.27,2.27,0,0,1,2.18,2.29c0,.62,0,1.24,0,1.85A2.58,2.58,0,0,1,81,48.27ZM78.27,45.4h0v1.38a.62.62,0,0,0,.43.64,1.14,1.14,0,0,0,1.57-1,17.42,17.42,0,0,0,0-1.77c0-1-.36-1.26-1.32-1.22a.64.64,0,0,0-.7.68C78.26,44.54,78.27,45,78.27,45.4Z" transform="translate(-9.82 -41.38)"/><path class="cls-1" d="M49.64,54.94c0-.55,0-1,0-1.52A.67.67,0,0,1,50,53a1.24,1.24,0,0,0,.65-1.17c0-.73,0-1.45,0-2.18a1.27,1.27,0,0,0-.78-1.22,1.22,1.22,0,0,0-1.34.18,1.18,1.18,0,0,0-.47,1V52a1,1,0,0,0,.49.89.66.66,0,0,1,.32.63c0,.46,0,.92,0,1.37a3,3,0,0,1-3.31-2.94c0-2.4,0-4.8,0-7.2A2.91,2.91,0,0,1,48,41.63c.58-.12.79,0,.79.62,0,.23,0,.45,0,.68a.84.84,0,0,1-.33.7,1.56,1.56,0,0,0-.45.88c-.06,1,0,1.91,0,3a2.7,2.7,0,0,1,2.45-1.15,2.49,2.49,0,0,1,2.59,2.4,33.47,33.47,0,0,1,0,3.47,3.05,3.05,0,0,1-2.79,2.68Z" transform="translate(-9.82 -41.38)"/><path class="cls-1" d="M74.82,48.14c0,1.31.05,2.61,0,3.91a2.71,2.71,0,0,1-2.76,2.77,4.51,4.51,0,0,1-1.1,0,2.67,2.67,0,0,1-2.3-2.41,5.46,5.46,0,0,1-.07-.9q0-3.39,0-6.76a4.77,4.77,0,0,1,.11-1.06c.41-1.91,2-2.43,3.54-2.23,1.77.23,2.62,1.34,2.63,3.33v3.39Zm-2,0h0c0-1.28,0-2.55,0-3.83a1,1,0,0,0-.93-1,1,1,0,0,0-1.15.92,2.92,2.92,0,0,0,0,.51q0,3.39,0,6.79a3.09,3.09,0,0,0,.07.74.86.86,0,0,0,.75.71,1,1,0,0,0,1.3-1.07C72.79,50.62,72.77,49.37,72.77,48.12Z" transform="translate(-9.82 -41.38)"/><path class="cls-1" d="M57.79,54.85c-2.36,0-3.15-1.63-3.06-3.52a.77.77,0,0,1,0-.15c.13-.39.53-.54,1.27-.45a.63.63,0,0,1,.64.66c0,.22,0,.44.05.67a.92.92,0,0,0,1,.88,1,1,0,0,0,1-.92,2.74,2.74,0,0,0-.86-2.36C57.28,49,56.6,48.41,56,47.75a4.39,4.39,0,0,1-1.14-3.94c.33-2,1.78-2.59,3.46-2.4,2.08.23,2.56,1.85,2.55,3.26a.39.39,0,0,1-.42.43h-1a.51.51,0,0,1-.54-.52c0-.13,0-.26,0-.39a1,1,0,0,0-2,0,2.42,2.42,0,0,0,.57,2c.5.56,1.05,1.07,1.58,1.59a5.46,5.46,0,0,1,1.76,2.75,4.84,4.84,0,0,1-.07,2.27A2.71,2.71,0,0,1,57.79,54.85Z" transform="translate(-9.82 -41.38)"/><path class="cls-1" d="M31.51,48.88V47.06a8,8,0,0,0,1.14-.16,1.13,1.13,0,0,0,1-1.26v-.75a1.19,1.19,0,0,0-1.25-1.32h-.82c0-.09,0-.14,0-.19V41.66c.76,0,1.5.07,2.24.15a5.13,5.13,0,0,1,1.14.28,2.55,2.55,0,0,1,1.68,2.4,11,11,0,0,1,0,1.15,2.4,2.4,0,0,1-1.87,2.15l.42.15a2.39,2.39,0,0,1,1.76,2.11,10.11,10.11,0,0,1,0,2.13,2.61,2.61,0,0,1-1.67,2.09,7.71,7.71,0,0,1-3.66.45V52.9h.89c1,0,1.57-.46,1.49-1.46,0-.3,0-.61,0-.91a1.42,1.42,0,0,0-1.56-1.65C32.07,48.87,31.81,48.88,31.51,48.88Z" transform="translate(-9.82 -41.38)"/><path class="cls-1" d="M83.75,48.1V42.37c0-.61.22-.84.82-.84h4c.6,0,.81.22.81.81,0,.12,0,.24,0,.36a.65.65,0,0,1-.73.72H86.58c-.53,0-.76.24-.77.78v2.09c0,.56.23.78.8.78h1.31a.67.67,0,0,1,.73.74c0,.15,0,.31,0,.47A.64.64,0,0,1,88,49H86.56a.66.66,0,0,0-.74.73c0,.79,0,1.58,0,2.37a.68.68,0,0,0,.76.76h2.06c.52,0,.74.23.75.75,0,.14,0,.29,0,.43,0,.43-.22.69-.64.69-1.44,0-2.87,0-4.31,0-.46,0-.67-.27-.67-.75Z" transform="translate(-9.82 -41.38)"/><path class="cls-1" d="M30.56,48.24V54c0,.58-.14.72-.72.72s-1,0-1.5,0-.63-.17-.63-.62V42.3c0-.42.18-.6.6-.61h1.54c.54,0,.71.16.71.7Z" transform="translate(-9.82 -41.38)"/><path class="cls-1" d="M42.49,54.75H40V44.81H37.46V43.38L39,43.21A2.17,2.17,0,0,0,40.71,42a.43.43,0,0,1,.48-.28c.42,0,.84,0,1.3,0Z" transform="translate(-9.82 -41.38)"/><path class="cls-1" d="M65.68,49.08c0,1.59,0,3.18,0,4.78,0,.64-.2.84-.85.85h-.36c-.63,0-.85-.24-.85-.87V44.33c0-.73-.18-.9-.91-.91h-.12c-1,0-1.21-.23-1.12-1.25a.62.62,0,0,1,.63-.63h5.13a.58.58,0,0,1,.19,0c.39.14.53.56.43,1.24a.66.66,0,0,1-.7.6h-.6c-.66,0-.86.2-.86.88,0,1.12,0,2.24,0,3.36Z" transform="translate(-9.82 -41.38)"/><path class="cls-1" d="M13.14,50.69c-1.06,0-1.06,0-1.28,1-.06.3-.11.6-.19.89s-.12.4-.21.42a3.55,3.55,0,0,1-.92,0s-.08-.26,0-.39c.09-.48.21-1,.3-1.43s0-.46-.4-.49c-.18,0-.5-.07-.51-.15a3.7,3.7,0,0,1,0-.94s.23-.09.35-.09c1.09,0,.86.12,1.08-.91s.33-1-.79-1a1,1,0,0,1-.39,0,1,1,0,0,1-.3-.28s0,0,0-.08c0-.82,0-.82.78-.82,1.13,0,1.13,0,1.38-1.12.07-.31.16-.62.2-.93a.39.39,0,0,1,.49-.37H13c.4,0,.46.08.37.49s-.21,1-.33,1.5c-.07.28,0,.43.32.43.5,0,1,0,1.5,0a.5.5,0,0,0,.36-.3c.16-.56.25-1.13.39-1.69,0-.15.15-.37.25-.38a3.34,3.34,0,0,1,.89.06.71.71,0,0,1,0,.36c-.1.52-.2,1-.33,1.55-.07.3.05.42.34.41a.82.82,0,0,1,.35,0c.11,0,.28.18.28.28,0,1,.08.93-.78.89-.4,0-.57.12-.62.51a5.37,5.37,0,0,1-.19,1c-.09.34.07.43.37.42h.86c.28,0,.37.11.38.38,0,.82,0,.81-.77.81-1.14,0-1.14,0-1.39,1.1-.07.31-.15.61-.2.92s-.18.37-.45.37c-.83,0-.83,0-.66-.8l.27-1.19c.07-.28,0-.4-.31-.4S13.4,50.69,13.14,50.69Zm.64-3.08h0c-.22,0-.45,0-.67,0s-.43.1-.47.38-.14.72-.23,1.08,0,.42.33.42c.49,0,1,0,1.49,0a.53.53,0,0,0,.37-.28,10.9,10.9,0,0,0,.28-1.26c0-.22-.05-.33-.27-.33Z" transform="translate(-9.82 -41.38)"/><path class="cls-1" d="M18.7,48.19V44.56a3,3,0,0,1,2.69-3c.39,0,.59.12.61.53,0,.23,0,.47,0,.71a.89.89,0,0,1-.36.81,1.33,1.33,0,0,0-.4.85c0,2.5,0,5,0,7.5a1,1,0,0,0,.44.88.7.7,0,0,1,.34.7c0,.27,0,.55,0,.83a.49.49,0,0,1-.62.49,3,3,0,0,1-2.68-3.08c0-1.2,0-2.4,0-3.6Z" transform="translate(-9.82 -41.38)"/><path class="cls-1" d="M26.16,51.26A10.19,10.19,0,0,1,26,52.73a2.88,2.88,0,0,1-2.6,2.14.47.47,0,0,1-.56-.46,5.79,5.79,0,0,1,0-1,.64.64,0,0,1,.28-.42,1.13,1.13,0,0,0,.61-1.14c0-.46,0-.92,0-1.38s.15-.55.55-.55h1.3a.49.49,0,0,1,.54.54v.82Z" transform="translate(-9.82 -41.38)"/><path class="cls-1" d="M24.88,46.12c-1.16,0-1.18,0-1.15-1.14,0-.66-.05-1.23-.73-1.56-.11-.05-.17-.26-.18-.4a7.69,7.69,0,0,1,0-.83c0-.49.18-.64.66-.59a3,3,0,0,1,2.64,2.89c0,.34,0,.69,0,1s-.16.59-.6.6Z" transform="translate(-9.82 -41.38)"/><path class="cls-1" d="M51.91,45.05h-.28c-.79,0-.78,0-1-.74a1.07,1.07,0,0,0-.65-.79.54.54,0,0,1-.38-.58c0-.29,0-.58,0-.87s.21-.54.59-.51a3,3,0,0,1,2.82,3c0,.43-.06.51-.48.52Z" transform="translate(-9.82 -41.38)"/></svg>