<svg id="Camada_1" height="60" width="60"  data-name="Camada 1" xmlns="http://www.w3.org/2000/svg" viewBox="0 0 76.06 31.85"><defs><style>.cls-1{fill:#fff;}</style></defs><path class="cls-1" d="M46.18,32.76a6.72,6.72,0,0,1-2.26-4.1A3.64,3.64,0,0,1,45,25.1a2.71,2.71,0,0,1,3.06-.58,3.17,3.17,0,0,1,2,2.77,11.76,11.76,0,0,1-.19,2,6.31,6.31,0,0,1,3.38-2.08,4.79,4.79,0,0,1,2.83.06,3.23,3.23,0,0,1,2.11,3.26,3.4,3.4,0,0,1-3,2.69,15.19,15.19,0,0,1-1.82-.15l.39.39A6.24,6.24,0,0,1,55.5,38,3.33,3.33,0,0,1,53,41.23a3.18,3.18,0,0,1-3.71-2.94,13.14,13.14,0,0,1,.14-1.7c-.53.39-1.08.86-1.7,1.23a5.47,5.47,0,0,1-4.14.69,3.08,3.08,0,0,1-2.33-2.27,2.66,2.66,0,0,1,.91-2.86,3.34,3.34,0,0,1,3.39-.79Zm2.6,2,0-.15-1.29-.12a2.85,2.85,0,0,1-.55-.16,4.32,4.32,0,0,0-3.85.24c-.7.44-.92,1-.71,1.56a1.62,1.62,0,0,0,1.77,1.06,9.87,9.87,0,0,0,4-1.63,8.55,8.55,0,0,0,1.09-1.08l-.12-.12Zm1.61-3.95L51,31a3,3,0,0,0,.51.16,6.57,6.57,0,0,1,.89.12A4.37,4.37,0,0,0,56.37,31a1.3,1.3,0,0,0-.12-2.37,1.86,1.86,0,0,0-1-.15,8.79,8.79,0,0,0-4.51,2A2.23,2.23,0,0,0,50.39,30.84Zm1.3,2.74a7.71,7.71,0,0,0-.38,1c-.09.35-.05.73-.15,1.06a4.33,4.33,0,0,0,.34,3.84,1.3,1.3,0,0,0,2.34-.05,1.67,1.67,0,0,0,.19-.9A8.23,8.23,0,0,0,52,33.78,1.83,1.83,0,0,0,51.69,33.58Zm-4.11-1.67a7.42,7.42,0,0,0,.69-2.05,4.31,4.31,0,0,0-.34-3.65,1.33,1.33,0,0,0-1.51-.75A1.48,1.48,0,0,0,45.33,27a8.08,8.08,0,0,0,2.06,4.83C47.43,31.85,47.52,31.87,47.58,31.91ZM49,31.54l.16-1.07-.74.79Zm-.62,1.93-.88-.15.58.72ZM51,32.14l1,.16-.74-.71Zm-.61,2-.16,1,.7-.74Z" transform="translate(-11.65 -24.27)"/><path class="cls-1" d="M49.47,46.59a3.79,3.79,0,0,1,2.85-1.06,2.82,2.82,0,0,1,2.94,2.69c.06.8,0,1.61,0,2.41,0,1.57,0,3.15,0,4.72,0,.56-.23.8-.78.76h-.41c-.44,0-.57-.17-.57-.59q0-3.23,0-6.43a5.6,5.6,0,0,0-.14-1.29c-.21-.89-.79-1.22-1.84-1.14a1.66,1.66,0,0,0-1.47,1.52c0,.65,0,1.3,0,2v5c0,1,0,1-.75,1s-.94-.14-.94-1c0-2.1,0-4.21,0-6.31a3.09,3.09,0,0,0-.29-1.24,1.56,1.56,0,0,0-1.68-.84A1.5,1.5,0,0,0,45,47.74a5,5,0,0,0-.25,1.49c-.06,2.1-.09,4.21-.11,6.31,0,.34-.07.6-.48.57s-1,.18-1.13-.45a1.4,1.4,0,0,1,0-.41V47c0-.91.37-1.17,1.26-.94A1.18,1.18,0,0,0,45,46a3.58,3.58,0,0,1,3.33-.22A7.89,7.89,0,0,1,49.47,46.59Z" transform="translate(-11.65 -24.27)"/><path class="cls-1" d="M31.15,45.53c1.46-.19,3.18,1.16,3.74,3a6.9,6.9,0,0,1-.47,5.48,3.64,3.64,0,0,1-6.38.33,6.55,6.55,0,0,1,.1-7.31A3.33,3.33,0,0,1,31.15,45.53Zm-1.93,2.84a10.65,10.65,0,0,0,0,4.83,4.05,4.05,0,0,0,.12.47A1.68,1.68,0,0,0,31.14,55,1.82,1.82,0,0,0,33,53.58a8.44,8.44,0,0,0,.34-1.79,8.85,8.85,0,0,0-.41-3.95A1.75,1.75,0,0,0,31,46.63a1.69,1.69,0,0,0-1.68,1.31C29.29,48.08,29.25,48.23,29.22,48.37Z" transform="translate(-11.65 -24.27)"/><path class="cls-1" d="M62.41,54.05c.6.65.56,1.06-.1,1.47A3.53,3.53,0,0,1,57.78,55a6.64,6.64,0,0,1-.21-8.25,3.51,3.51,0,0,1,3.53-1.13,3.11,3.11,0,0,1,2.37,2.58c.57,2.17-1.43,5.09-3.63,5.3a1.22,1.22,0,0,1,.39-1.29A4.72,4.72,0,0,0,61.68,48a1.5,1.5,0,0,0-1.2-1.36,1.67,1.67,0,0,0-1.79,1,4.23,4.23,0,0,0-.4,1.34,11.08,11.08,0,0,0,.21,4.33c.48,1.66,1.84,2.13,3.31,1.17C62,54.36,62.19,54.21,62.41,54.05Z" transform="translate(-11.65 -24.27)"/><path class="cls-1" d="M15.25,53.52a1.06,1.06,0,0,1,.3-1.2,5,5,0,0,0,1.61-3.91,1.69,1.69,0,0,0-1.23-1.73,1.78,1.78,0,0,0-2,1.3,8.08,8.08,0,0,0-.31,3.49,9.6,9.6,0,0,0,.4,2.07,1.91,1.91,0,0,0,3,1.06c.27-.16.51-.36.76-.53.65.6.61,1-.09,1.45a3.55,3.55,0,0,1-4.8-.86A6.75,6.75,0,0,1,12.74,47a3.63,3.63,0,0,1,4.62-1.12,3.84,3.84,0,0,1,1.34,4.65,5.27,5.27,0,0,1-3,2.85A2.85,2.85,0,0,1,15.25,53.52Z" transform="translate(-11.65 -24.27)"/><path class="cls-1" d="M86.53,47.38a13,13,0,0,0-1.71-.69,1.11,1.11,0,0,0-1.37.64,1.51,1.51,0,0,0,.41,1.72,14.29,14.29,0,0,0,1.23.79c.5.31,1,.6,1.49.94a2.61,2.61,0,0,1,1,3A2.93,2.93,0,0,1,85.25,56a3.59,3.59,0,0,1-2.89-.43c-.6-.38-.65-.69-.17-1.36l.63.36a2.33,2.33,0,0,0,2,.35,1.47,1.47,0,0,0,.66-2.46,9.76,9.76,0,0,0-1.37-1,16,16,0,0,1-1.52-1,2.63,2.63,0,0,1-.32-3.83,3.13,3.13,0,0,1,4.25-.41C86.92,46.56,86.91,46.88,86.53,47.38Z" transform="translate(-11.65 -24.27)"/><path class="cls-1" d="M40.85,47.47c-.28-.19-.56-.41-.86-.58-1-.56-2.09-.2-2.23.79A1.51,1.51,0,0,0,38,48.76a5.63,5.63,0,0,0,1.24,1c.54.36,1.12.66,1.65,1a2.66,2.66,0,0,1,1.07,3A2.93,2.93,0,0,1,39.7,56a3.66,3.66,0,0,1-3-.46c-.61-.4-.62-.78-.18-1.2a17.26,17.26,0,0,0,2.16.64,1.48,1.48,0,0,0,1.53-1,1.55,1.55,0,0,0-.5-1.75,12.66,12.66,0,0,0-1.08-.72c-.45-.28-.92-.52-1.35-.83a2.7,2.7,0,0,1-1-3.52A3.16,3.16,0,0,1,40,45.7a3.6,3.6,0,0,1,.69.32C41.34,46.42,41.39,46.81,40.85,47.47Z" transform="translate(-11.65 -24.27)"/><path class="cls-1" d="M66.8,50.41V53c0,1.56.86,2.21,2.46,1.9a1.19,1.19,0,0,1,.86.26c.28.24.18.55-.19.68a4.07,4.07,0,0,1-4-.63,2,2,0,0,1-.76-1.66c0-2.05,0-4.09,0-6.14,0-.46-.09-.7-.61-.65s-.88-.12-.87-.69.43-.66.88-.63.65-.14.59-.6a4.6,4.6,0,0,1,0-.83c0-.3-.14-.7.41-.74s1,.12,1.12.66a6.18,6.18,0,0,1,0,1.06c0,.32.14.45.46.45s.91,0,1.36,0,.74.2.73.66a.66.66,0,0,1-.74.67c-.43,0-.87,0-1.3,0s-.52.12-.52.51c0,1,0,2.08,0,3.12Z" transform="translate(-11.65 -24.27)"/><path class="cls-1" d="M23.82,45.52a3.31,3.31,0,0,1,2.74,1.36.77.77,0,0,1,.19.62c-.05.13-.37.2-.59.23a.94.94,0,0,1-1-.44,1.85,1.85,0,0,0-3.06.28,3.45,3.45,0,0,0-.46,1.51,25.82,25.82,0,0,0,.12,4,1.93,1.93,0,0,0,2.67,1.74,1.8,1.8,0,0,0,.78-.58c.28-.39.57-.5.92-.19a.69.69,0,0,1,0,1.05,2.55,2.55,0,0,1-.7.52,3.63,3.63,0,0,1-4.82-1.23,6.88,6.88,0,0,1,0-7.16A3.65,3.65,0,0,1,23.82,45.52Z" transform="translate(-11.65 -24.27)"/><path class="cls-1" d="M75.64,51.06a16.9,16.9,0,0,0,.42,2.46,1.84,1.84,0,0,0,2.67,1.28,1.45,1.45,0,0,0,.64-.5c.27-.44.57-.52.95-.2a.73.73,0,0,1,0,1.1,3.59,3.59,0,0,1-5.07-.31,6.58,6.58,0,0,1,0-8.21,3.66,3.66,0,0,1,5.31,0c.24.26.68.54.34,1-.21.29-1.19.13-1.42-.21a1.62,1.62,0,0,0-1.32-.76c-1.31-.07-2.09.67-2.3,2.21C75.75,49.5,75.71,50.15,75.64,51.06Z" transform="translate(-11.65 -24.27)"/><path class="cls-1" d="M72.74,50.78c0,1.51,0,3,0,4.54,0,.44-.1.77-.63.79s-.88-.2-.94-.74c0-.37,0-.75,0-1.12,0-2.59,0-5.19,0-7.78,0-.72.24-1,.85-1s.74.13.73.67C72.73,47.67,72.74,49.23,72.74,50.78Z" transform="translate(-11.65 -24.27)"/><path class="cls-1" d="M72.71,44.43a.71.71,0,0,1-.77.82.69.69,0,0,1-.77-.77c0-.44.2-.74.72-.73S72.7,43.94,72.71,44.43Z" transform="translate(-11.65 -24.27)"/></svg>