<svg id="Camada_1" height="60" width="60"  data-name="Camada 1" xmlns="http://www.w3.org/2000/svg" viewBox="0 0 81.71 19.05"><defs><style>.cls-1{fill:#fff;}</style></defs><path class="cls-1" d="M9.15,47.26q0-4.4,0-8.79c0-.72,0-.73.73-.72,1.61,0,3.21,0,4.81.08a4.57,4.57,0,0,1,3.87,2.6,6.62,6.62,0,0,1-.37,7.4,4.72,4.72,0,0,1-4,2.09c-1,0-1.92,0-2.88,0-.41,0-.54.13-.54.54,0,1.88,0,3.76,0,5.64,0,.52-.12.72-.67.69-1-.07-.95.17-1-1,0-2.86,0-5.72,0-8.58Zm1.63-3.41h0c0,1.71,0,3.43,0,5.14,0,.46.14.61.6.6.85,0,1.7,0,2.54,0a3,3,0,0,0,2.57-1.25,8.17,8.17,0,0,0,0-9.09A3,3,0,0,0,14,38.08c-.87,0-1.73,0-2.6,0-.48,0-.64.13-.63.62C10.79,40.42,10.78,42.13,10.78,43.85Z" transform="translate(-9.15 -37.75)"/><path class="cls-1" d="M77.06,56c-.42.2-.79.41-1.18.55a4.17,4.17,0,0,1-5.5-3.68c-.18-2.81,0-5.64-.06-8.46,0-.34.14-.46.46-.45s.62,0,1,0c0,.29,0,.52,0,.75,0,2.31,0,4.61,0,6.92a4.74,4.74,0,0,0,1.42,3.76,2.78,2.78,0,0,0,3.38.28,1,1,0,0,0,.51-1c0-3.23,0-6.46,0-9.69,0-1.16,0-1.14,1.18-1.08.34,0,.45.15.45.47,0,1,0,2.07,0,3.1,0,2.84,0,5.69,0,8.53,0,.73,0,.73-.72.73S77.24,56.79,77.06,56Z" transform="translate(-9.15 -37.75)"/><path class="cls-1" d="M63.48,44a6.1,6.1,0,0,1,5.58,5.67,6.37,6.37,0,0,1-3.23,6.37,5.7,5.7,0,0,1-7-1.27,6.83,6.83,0,0,1-.09-8.7A5.86,5.86,0,0,1,63.48,44Zm-.73.67a3.76,3.76,0,0,0-4,2.57,7.34,7.34,0,0,0,2.08,7.41A5.51,5.51,0,0,0,63.44,56a3.6,3.6,0,0,0,4.2-2.8A6.93,6.93,0,0,0,66.3,47,5.14,5.14,0,0,0,62.75,44.7Z" transform="translate(-9.15 -37.75)"/><path class="cls-1" d="M38.83,55.54a5.59,5.59,0,0,1-7.89-.91,6.47,6.47,0,0,1-.55-7.69,5.68,5.68,0,0,1,9.82-.26,6,6,0,0,1,1,3.26H31.55c-.92,0-.93,0-.72.9a6.89,6.89,0,0,0,3.29,4.63,3.75,3.75,0,0,0,4.23,0,1.57,1.57,0,0,1,.45-.12Zm1-6a6.65,6.65,0,0,0-4.24-4.69,3.51,3.51,0,0,0-4,1.31,5.57,5.57,0,0,0-.91,2.8c-.05.48.12.63.61.63,2.67,0,5.35,0,8,0C39.4,49.58,39.54,49.56,39.8,49.54Z" transform="translate(-9.15 -37.75)"/><path class="cls-1" d="M80.42,51.47c0,.19.1.37.13.56A4.81,4.81,0,0,0,84,56.2a4.76,4.76,0,0,0,5.19-1.39,3.45,3.45,0,0,0-.77-5.48c-1.21-.67-2.44-1.3-3.66-2a7.84,7.84,0,0,1-3-2.6,5.15,5.15,0,0,1,.27-5.2,4.36,4.36,0,0,1,7.84,1.88,5,5,0,0,1,0,.67l-.18,0a2.85,2.85,0,0,1-.11-.39,4,4,0,0,0-3.38-3.6,3.87,3.87,0,0,0-4.12,2,3.58,3.58,0,0,0,1.49,4.38c1,.64,2.07,1.13,3.09,1.72a19.58,19.58,0,0,1,2.68,1.64C91,49.3,91.17,51,90.5,53.15a5.22,5.22,0,0,1-5.36,3.62,5.35,5.35,0,0,1-4.87-4.28,7.91,7.91,0,0,1-.07-1Z" transform="translate(-9.15 -37.75)"/><path class="cls-1" d="M22.62,44l.08,1.4C24.31,44,26,43.5,28,44.57a11.61,11.61,0,0,1-.82,1.12c-.07.08-.37,0-.52,0a3.05,3.05,0,0,0-3.45.4,1.47,1.47,0,0,0-.58,1.24c0,2.86,0,5.72,0,8.58v.87H21.06v-1c0-3.6,0-7.2,0-10.8,0-1.2-.13-1,1.08-1C22.28,44,22.42,44,22.62,44Z" transform="translate(-9.15 -37.75)"/><path class="cls-1" d="M52.15,45.3c-.09.09-.12.14-.16.17-.84.68-.84.68-1.72.06a4.06,4.06,0,0,0-4.62-.24,4.19,4.19,0,0,0-1.72,3.16,7.11,7.11,0,0,0,3.3,6.92,3.74,3.74,0,0,0,4.41.07,1.24,1.24,0,0,1,.4-.11l.09.16c-.15.12-.28.25-.43.35a5.64,5.64,0,0,1-7.44-1.11,6.67,6.67,0,0,1,.89-9.53A5.64,5.64,0,0,1,51.9,45C52,45.11,52.05,45.2,52.15,45.3Z" transform="translate(-9.15 -37.75)"/><path class="cls-1" d="M54,56.79c0-.38-.05-.69-.05-1,0-3.71,0-7.42,0-11.13,0-.23.11-.64.21-.65a5.76,5.76,0,0,1,1.31,0s.1.26.1.4c0,4,0,7.93,0,11.9,0,.32-.1.47-.45.46S54.36,56.79,54,56.79Z" transform="translate(-9.15 -37.75)"/><path class="cls-1" d="M54.69,40a1.1,1.1,0,0,1,1.13,1.1,1.13,1.13,0,0,1-1.08,1.1,1.08,1.08,0,0,1-1.11-1.06A1.05,1.05,0,0,1,54.69,40Z" transform="translate(-9.15 -37.75)"/></svg>