<svg id="Camada_1" height="60" width="60"  data-name="Camada 1" xmlns="http://www.w3.org/2000/svg" viewBox="0 0 71.61 66.19"><defs><style>.cls-1{fill:#fff;}</style></defs><path class="cls-1" d="M64.22,60.76a3.85,3.85,0,0,1,.47-.19c2-.46,2.5-1.09,2.51-3.15q0-8.1,0-16.19c0-2-.48-2.6-2.39-3.06a.82.82,0,0,1-.55-.39H80.41v5.67l-.23,0c-.08-.26-.17-.53-.24-.8-.56-2.34-2.06-4.44-5.39-4.28-1.39.07-2.8,0-4.24,0V49.24c2.14-.08,4.3.38,6.36-.55a2.78,2.78,0,0,0,1.78-2.53c.43.55.52,5.75.2,6.74-.07,0-.18-.06-.19-.11-.33-2-1.82-2.63-3.51-2.81-1.52-.15-3.07,0-4.69,0v3.39c0,2.08,0,4.16,0,6.24,0,.27.19.7.39.77,2.33.83,4.65,1.7,7,2.35a7.76,7.76,0,0,0,5.59-.53,1.39,1.39,0,0,1,.82-.12,7.37,7.37,0,0,1-3.38,2.35,8.55,8.55,0,0,1-6.77-.58c-1.5-.7-3-1.48-4.48-2.14a9.43,9.43,0,0,0-4.7-.72,3,3,0,0,1-.52,0Z" transform="translate(-12.47 -14.99)"/><path class="cls-1" d="M63,42.07c-.17-.21-.33-.43-.49-.65A16.64,16.64,0,0,0,60.72,39a4.66,4.66,0,0,0-6.2.34A4,4,0,0,0,54.61,45c1.68,1.59,3.64,2.88,5.46,4.33a34,34,0,0,1,2.81,2.41c2.32,2.32,1.62,6.05-.65,7.92a9,9,0,0,1-9.54.8C50.57,59.39,50.53,59.3,51.1,57c.14-.55.23-1.1.37-1.64a5.2,5.2,0,0,1,.32-.77l.22,0c0,.2.07.4.1.6a21,21,0,0,0,.34,2.25,4,4,0,0,0,4.82,3.16,4.61,4.61,0,0,0,4-4.51,2.94,2.94,0,0,0-1.07-2.3c-1.69-1.35-3.48-2.56-5.14-3.94a19.22,19.22,0,0,1-3.47-3.39,5.6,5.6,0,0,1,3.29-8.91,20,20,0,0,1,4.66-.25,17.48,17.48,0,0,1,2.6.26c.21,0,.55.24.58.4.23,1.29.39,2.6.57,3.9Z" transform="translate(-12.47 -14.99)"/><path class="cls-1" d="M44.07,37.78h6.74l0,.23-.92.22a2.35,2.35,0,0,0-2.1,2.6c0,4.19,0,8.38-.15,12.57A11.13,11.13,0,0,1,47,56.85a6.43,6.43,0,0,1-6,4.55,14.65,14.65,0,0,1-3.44-.14c-3.58-.65-5.49-2.88-5.87-6.7-.08-.81-.12-1.63-.12-2.44,0-4.22,0-8.44,0-12.66a10.61,10.61,0,0,0-.24-2.17,4,4,0,0,0-2.8-3.1c-.25-.1-.49-.24-.74-.36l.07-.31c.47,0,.95,0,1.42.13a6,6,0,0,1,5.32,6.17c.08,4.14,0,8.27.05,12.4A23.77,23.77,0,0,0,34.9,56c.44,2.68,1.8,4.17,4,4.59a6.18,6.18,0,0,0,6.68-2.67,9.55,9.55,0,0,0,1.4-5c.06-4.13,0-8.27,0-12.4a2.31,2.31,0,0,0-1.91-2.27c-.36-.1-.73-.16-1.1-.25Z" transform="translate(-12.47 -14.99)"/><path class="cls-1" d="M59.24,64.57,57,69.32l.17.09c.7-1,1.37-2,2.12-2.88a10.34,10.34,0,0,1,1.77-1.79,1.26,1.26,0,0,1,1.19-.15,1.33,1.33,0,0,1,.29,1.16c-.25.94-.64,1.84-.89,2.8.72-.87,1.41-1.78,2.18-2.6a12.27,12.27,0,0,1,2-1.71,1.25,1.25,0,0,1,1.14,0,1.2,1.2,0,0,1,.22,1.11c-.48,1.1-1.1,2.14-1.64,3.21a8.46,8.46,0,0,0-.73,1.7,1.29,1.29,0,0,0,.22,1c.16.15.73.06,1-.12a10,10,0,0,0,1.81-1.49c.79-.87,1.49-1.83,2.23-2.74.16-.19.33-.35.62-.66,0,.32,0,.41,0,.46a16.44,16.44,0,0,1-4.2,4.78,3.08,3.08,0,0,1-.59.33c-1,.41-1.85-.12-1.7-1.18A8.25,8.25,0,0,1,65,68.36c.48-1,1.07-2,1.57-3a2,2,0,0,0,0-.77c-.26.06-.59,0-.77.18a9.36,9.36,0,0,0-1.66,1.54c-1.19,1.56-2.29,3.19-3.43,4.78a2.86,2.86,0,0,1-.45.4c0-.22-.14-.46-.08-.64.51-1.51,1.06-3,1.58-4.53.14-.42.22-.87.33-1.31l-.28-.18a5.84,5.84,0,0,0-1.19.93c-1.25,1.66-2.45,3.36-3.66,5a2.05,2.05,0,0,1-.26.43,4.29,4.29,0,0,1-.55.4A1.65,1.65,0,0,1,56,71c.13-.63.32-1.24.53-2-.69.69-1.25,1.3-1.87,1.83a6.77,6.77,0,0,1-1.62,1,1,1,0,0,1-1.46-.93,7,7,0,0,1,.65-2.3c.41-.92,1-1.76,1.47-2.65a9.35,9.35,0,0,0,.45-1.26,1.24,1.24,0,0,0-1.55.52c-1.23,1.41-2.41,2.88-3.57,4.35-.35.44-.57,1-.88,1.44a4.84,4.84,0,0,1-.48.55l-.29-.16,2.16-6.32-.32-.24a5.59,5.59,0,0,0-1.23,1c-1.23,1.61-2.39,3.26-3.56,4.9-.18.25-.3.55-.5.78a.47.47,0,0,1-.41.14.48.48,0,0,1-.18-.4,9,9,0,0,0,.21-1.52,15.5,15.5,0,0,1-1.1,1.19,5.31,5.31,0,0,1-1.31.91,1.38,1.38,0,0,1-2.07-1.35c0-.28,0-.56,0-1-.45.54-.79,1-1.18,1.41a4.91,4.91,0,0,1-1,.81,1.28,1.28,0,0,1-2.12-1.1c0-.36,0-.71,0-.85-.45.38-1,.85-1.56,1.29a1.9,1.9,0,0,1-2.18.38c-.83-.46-.83-1.28-.73-2.08A12.19,12.19,0,0,1,32.93,64a1.81,1.81,0,0,1,0,.66c-.6,1.33-1.28,2.62-1.81,4-.3.74-.63,1.72.25,2.22s1.69-.19,2.16-.85c1.08-1.53,2-3.16,3-4.76.23-.37.39-.79.59-1.18l.31.06a2.71,2.71,0,0,1-.13.72c-.54,1.3-1.15,2.56-1.64,3.87a5.32,5.32,0,0,0-.26,1.82.76.76,0,0,0,1.22.71,3.1,3.1,0,0,0,1.08-.92c1.12-1.65,2.18-3.33,3.28-5a7.68,7.68,0,0,1,.6-.68l.25.21c-.31.58-.66,1.14-.91,1.74-.44,1-.84,2.08-1.2,3.13-.19.55-.26,1.27.35,1.49a1.72,1.72,0,0,0,1.51-.32c1.27-1.48,2.44-3,3.6-4.62.35-.47.56-1,.87-1.55a.58.58,0,0,1,.6-.21l-2.22,4.72.18.09c.72-1,1.4-2,2.17-2.93a10.34,10.34,0,0,1,1.81-1.75,1.18,1.18,0,0,1,1.12,0,1.28,1.28,0,0,1,.23,1.1c-.23.91-.59,1.78-.79,2.71.68-.81,1.32-1.66,2-2.44a11,11,0,0,1,1.88-1.67,1.45,1.45,0,0,1,1.28-.08c.22.13.31.85.16,1.18-.42,1-1,1.94-1.5,2.92a10.82,10.82,0,0,0-.88,2.08c-.21.83.3,1.21,1.06.82a7.22,7.22,0,0,0,1.56-1.13A17.86,17.86,0,0,0,58.52,65a3.42,3.42,0,0,1,.54-.61Z" transform="translate(-12.47 -14.99)"/><path class="cls-1" d="M36.11,78.61v2.47H34.66V76.22c-2-.38-3.95-.68-5.87-1.15a15.29,15.29,0,0,1-5.55-2.75,1.22,1.22,0,0,0-1.48-.11,11.73,11.73,0,0,1-3.32,1.12c-3.56.47-5.9-1.71-6-5.48a15,15,0,0,1,2.32-8,4.33,4.33,0,0,0,.66-2.45,11.17,11.17,0,0,1,1.26-5.52,7.12,7.12,0,0,1,7.36-4.17c3.06.28,5,2.2,6,5,1.18,3,.76,6-.22,9-1.31,4-3,6.34-6.78,9.84a15.12,15.12,0,0,0,6.08,3.11c2.21.54,4.49.81,6.85,1.21v2.55l.22.18c.29-.22.68-.38.83-.67a1.7,1.7,0,0,0-.47-2.1c1.08-.18,1.82.3,1.9,1.25S37.91,78.55,36.11,78.61Zm-13.5-7.47c.42-.34.79-.61,1.12-.9a19.46,19.46,0,0,0,5.88-9.45,12.65,12.65,0,0,0,.09-7.63,6.85,6.85,0,0,0-6.16-4.95c-4.69,0-8.34,4.61-7.44,9.54.42-.49.8-1,1.22-1.41,1.9-2,4-3.79,6.85-4.31a3.51,3.51,0,0,1,2.92.67.77.77,0,0,1-.61.14,4.82,4.82,0,0,0-3.69.11,15.54,15.54,0,0,0-5.17,3.82,4.3,4.3,0,0,0-1.2,4.75A19.46,19.46,0,0,0,22.61,71.14ZM15.47,60c-1.67,2.76-2.76,5.66-2.35,8.93a4.28,4.28,0,0,0,2.1,3.37A6.44,6.44,0,0,0,22,71.37,19.46,19.46,0,0,1,15.47,60Z" transform="translate(-12.47 -14.99)"/><path class="cls-1" d="M55.3,33c-1.69-2.07-3.38-4.13-5.06-6.2-1.36-1.68-2.69-3.39-4.06-5.06a.76.76,0,0,1,0-1.1c1.3-1.73,2.55-3.49,3.86-5.21A1.35,1.35,0,0,1,51,15q6.15,0,12.3.08a1.07,1.07,0,0,1,.76.39q2,2.66,3.93,5.37a.85.85,0,0,1,0,.79q-4.66,6-9.37,12a1.68,1.68,0,0,1-.27.2c-1.84-1.38-3.66-2.81-4.56-5a4.53,4.53,0,0,1-.18-2.37,1.7,1.7,0,0,1,2.71-1.18,15,15,0,0,1,1.92,1.61c.75-.76,1.2-2.34,2.91-1.69.92.35,1.24,1.36,1,2.86.18-.18.32-.28.43-.41,1.59-2,3.17-3.94,4.76-5.9a.75.75,0,0,0,.08-1.1c-1.15-1.59-2.22-3.24-3.38-4.83a1.42,1.42,0,0,0-1-.53c-3.91,0-7.82,0-11.73,0a1.53,1.53,0,0,0-1.07.56C49,17.45,48,19.05,46.87,20.59a.85.85,0,0,0,.05,1.23c2.77,3.54,5.5,7.11,8.25,10.67l.28.39ZM56.74,32l.28-.19c-.15-.24-.32-.46-.46-.71C56,30,55.39,29,54.89,28a1.35,1.35,0,0,1,.27-1.71c.52-.43,1.05-.18,1.55.12a.52.52,0,0,0,.21,0c-.88-.84-1.67-1.07-2.26-.69a2.2,2.2,0,0,0-.58,2.38,3,3,0,0,0,.34.85C55.18,29.94,56,30.94,56.74,32Z" transform="translate(-12.47 -14.99)"/><path class="cls-1" d="M53.79,15.62c-1.18,1.73-2.22,3.33-3.34,4.86a1.42,1.42,0,0,0-.13,1.61c.82,1.9,1.6,3.83,2.38,5.75a1,1,0,0,1,.08.69C51.87,27.34,51,26.16,50,25s-1.63-2.14-2.47-3.19a.81.81,0,0,1-.08-1.17c1-1.47,2-3,3-4.47a1.4,1.4,0,0,1,.93-.51A23.17,23.17,0,0,1,53.79,15.62Z" transform="translate(-12.47 -14.99)"/><path class="cls-1" d="M59.18,75.72c1,0,1.36.82,1.59,1.58a3.22,3.22,0,0,1-.64,3.08,2.18,2.18,0,0,1-2.28.69c-.27-.06-.53-.44-.68-.73a.72.72,0,0,1,.29-.61.7.7,0,0,1,.65.09c.14.12.15.43.13.65s-.17.27-.29.44c.61.21,1.14.09,1.29-.52s.6-1.11-.23-1.47v0a4.08,4.08,0,0,0,.17-3.23Z" transform="translate(-12.47 -14.99)"/><path class="cls-1" d="M65.27,81.09H62a15,15,0,0,1,1.35-1.64,2.63,2.63,0,0,0,.93-2.4,10.59,10.59,0,0,0-.42-1.43,1.53,1.53,0,0,1,1.6,1.16c.47,1.91-1,2.52-2.32,3.18l.07.25L65.56,80Z" transform="translate(-12.47 -14.99)"/><path class="cls-1" d="M44.42,81A4.58,4.58,0,0,1,43,80.82c-.2-.08-.35-.67-.26-.95.3-1,1.27-.8,2.08-1,.07-.62.18-1.21-.89-1.22,1.55-.31,2.27.27,2.14,1.65a10.9,10.9,0,0,0,.16,1.8L44.39,81c.72-.52.39-1.23.4-1.93a.78.78,0,0,0-.89.81C43.85,80.35,43.73,80.88,44.42,81Z" transform="translate(-12.47 -14.99)"/><path class="cls-1" d="M51.85,81a4.23,4.23,0,0,1-1.44-.14c-.21-.1-.32-.7-.26-1,.09-.58.51-.72,2-.88.21-.93.14-1.07-.68-1.3,1.62-.13,2,.19,2,1.77,0,.56.08,1.13.13,1.76L51.83,81c.69-.54.39-1.23.36-1.93-.69,0-.86.46-.89,1S51.25,80.92,51.85,81Z" transform="translate(-12.47 -14.99)"/><path class="cls-1" d="M49.19,81.1c-1,.29-1.63-.14-1.68-1.29,0-.71,0-1.42,0-2.13l.22.4,1-1.19c0,.81,0,2,0,3.21A3.22,3.22,0,0,0,49.19,81.1Z" transform="translate(-12.47 -14.99)"/><path class="cls-1" d="M40.6,81.1H39.33V77.67l1.27-.19Z" transform="translate(-12.47 -14.99)"/><path class="cls-1" d="M59,78.92a1.56,1.56,0,0,1-1.94-.61,1.66,1.66,0,0,1,.3-2.14c.51-.42,1.08-.82,1.81-.45h0c-.6,0-.88.21-.88.81s0,1.06,0,1.59a.71.71,0,0,0,.72.83Z" transform="translate(-12.47 -14.99)"/><path class="cls-1" d="M67.54,80.88c.77.29,1.14-.07,1.33-.79.35-1.33-.15-2.15-1.41-2.25a2,2,0,0,1,2.23.25,1.5,1.5,0,0,1,.44,1.76,1.83,1.83,0,0,1-1.65,1.23,2.66,2.66,0,0,1-.93-.21Z" transform="translate(-12.47 -14.99)"/><path class="cls-1" d="M69.64,75.69c.08,1.28-.62,1.07-2.5,1-.29-1-.26-1,.69-1Z" transform="translate(-12.47 -14.99)"/><path class="cls-1" d="M62.57,75.94c.09.19.13.41.22.43.53.14.74.47.45.91-.12.2-.55.2-.83.29a5.36,5.36,0,0,1-.22-1.1C62.18,76.3,62.43,76.12,62.57,75.94Z" transform="translate(-12.47 -14.99)"/><path class="cls-1" d="M41.46,77.43l.81.78-.64.52-.58-1Z" transform="translate(-12.47 -14.99)"/><path class="cls-1" d="M67.55,80.87c-.69.13-.73-.37-.73-.82,0-.15.25-.37.43-.43a.54.54,0,0,1,.48.2,1.3,1.3,0,0,1,0,.61,3.53,3.53,0,0,1-.15.46Z" transform="translate(-12.47 -14.99)"/><path class="cls-1" d="M41,63c.26-.55,1.4-1,1.68-.87.07,0,.15.15.13.19s-.11.27-.21.3C42.17,62.71,41.69,62.81,41,63Z" transform="translate(-12.47 -14.99)"/></svg>