<svg id="Camada_1" data-name="Camada 1" xmlns="http://www.w3.org/2000/svg" viewBox="0 0 74.86 13.15"><defs><style>.cls-1{fill:#fff;}</style></defs><path class="cls-1" d="M55.59,36.24v10H52V33.42c2.62.11,5.23.07,7.8.37a3.7,3.7,0,0,1,3.29,3.08.43.43,0,0,0,.23.3,18.47,18.47,0,0,1,0-2,2,2,0,0,1,.4-1c.64-.77,1.13-.73,1.67.08,1.11,1.67,2.23,3.34,3.32,5a.91.91,0,0,1,.1.74c-1.41,2.19-2.85,4.36-4.27,6.52a1.59,1.59,0,0,1-1.27-1.78c0-2.16,0-4.31-.05-6.5a4.53,4.53,0,0,1-2.4,3.36,9.1,9.1,0,0,1-4.24.61V39.52c.57-.07,1.16-.1,1.73-.22a1.45,1.45,0,0,0-.05-2.87C57.43,36.31,56.55,36.31,55.59,36.24Z" transform="translate(-2.57 -33.42)"/><path class="cls-1" d="M43.2,33.52A8.19,8.19,0,0,1,49.5,36a5.65,5.65,0,0,1,0,7.85,8.81,8.81,0,0,1-11.36.71,5.8,5.8,0,0,1,.12-9.38A7.67,7.67,0,0,1,43.2,33.52Zm4.21,6.41a3.82,3.82,0,0,0-3.91-3.75,3.76,3.76,0,0,0-4,3.7,4,4,0,0,0,7.92,0Z" transform="translate(-2.57 -33.42)"/><path class="cls-1" d="M16.49,46.23h-3.7V38.47l-.13-.07-.47.63C10.6,41.27,9,43.51,7.43,45.77a1,1,0,0,1-1,.51c-1.23,0-2.47,0-3.86,0l2.39-3C7.42,40.19,9.9,37.11,12.35,34a1.2,1.2,0,0,1,1.09-.51c1,0,2,0,3,0Z" transform="translate(-2.57 -33.42)"/><path class="cls-1" d="M25.66,46.24H17.55V33.57h3.69v9.85h4.42Z" transform="translate(-2.57 -33.42)"/><path class="cls-1" d="M26.72,46.23V33.56h3.71v9.85h4.45v2.82Z" transform="translate(-2.57 -33.42)"/><path class="cls-1" d="M77.25,45.89l-2.16-3.26c-.54-.82-1.09-1.64-1.61-2.47a.65.65,0,0,1-.07-.55c1.15-1.82,2.33-3.61,3.7-5.42a3.82,3.82,0,0,1,.28,1c0,3.23,0,6.47,0,9.7A6.24,6.24,0,0,1,77.25,45.89Z" transform="translate(-2.57 -33.42)"/><path class="cls-1" d="M73.67,46.58H68.53L71,42.27Z" transform="translate(-2.57 -33.42)"/><path class="cls-1" d="M71.17,37.15l-2.1-3.52h4.15Z" transform="translate(-2.57 -33.42)"/></svg>