<svg id="Camada_1" data-name="Camada 1" xmlns="http://www.w3.org/2000/svg" viewBox="0 0 1665.85 335.72"><defs><style>.cls-1{fill:#fff;}</style></defs><path class="cls-1" d="M-669.65,4.21c.67.79,1,.14,1.24-.36.94-2.4,3-3,5.2-3.17,1.55-.14,3.12-.13,4.68-.13q21.78,0,43.56,0a34.36,34.36,0,0,1,4.31.16c3.15.42,4.69,2,5.07,5.13a26.92,26.92,0,0,1,.1,3.24v315c0,7.28-1.2,8.76-8.49,8.84-15.48.17-31,.06-46.44.05-1,0-1.91-.14-2.87-.22-2.29-.17-4.19-.93-5.13-3.27-.18-.45-.49-1.21-1.23-.45Z" transform="translate(669.65 0.35)"/><path class="cls-1" d="M844.41,47.23V86.47c0,.84,0,1.68,0,2.52.11,2.24.22,2.44,2.58,2.29,12-.78,24-1.27,35.93-1.7,8.27-.29,16.54-.32,24.82,0a196.43,196.43,0,0,1,25.74,2.52c12.23,2.14,23.62,6.27,33.45,14.1,9.59,7.62,15.87,17.52,19.95,28.94,3.86,10.79,5.76,22,7.06,33.34,2.23,19.34,2.53,38.78,2.07,58.21-.41,17.52-1.95,35-6.38,52-3.16,12.13-8.3,23.21-17.28,32.28-8.81,8.89-19.61,14.07-31.49,17.23a181.44,181.44,0,0,1-34.78,5.26c-18.38,1.21-36.67-.3-55-1.4-11-.66-22-1.47-33-2.34-7.65-.6-15.21-2-22.78-3.17-2.36-.38-4.74-.71-7.08-1.2a8.13,8.13,0,0,1-6.6-6.8,32.6,32.6,0,0,1-.77-6.77q0-151,0-302a23.65,23.65,0,0,1,.37-5.37C782,1.17,783,.16,786.28-.18a33.24,33.24,0,0,1,3.6-.16H835.6a33.18,33.18,0,0,1,3.59.17c3.54.39,4.76,1.66,5.08,5.29.13,1.43.13,2.88.13,4.32Q844.42,28.34,844.41,47.23Zm.35,163.21q0,31.14,0,62.27c0,3.5,0,3.42,3.51,3.82,9.77,1.13,19.54,2,29.38,2.37A126.94,126.94,0,0,0,906.29,277c9.11-1.76,16.15-6.63,20-15.34A51.62,51.62,0,0,0,930,249.31c1.24-7.25.94-14.59,1.13-21.88.35-13.79.37-27.6.18-41.39a63.25,63.25,0,0,0-5-23.8,25.08,25.08,0,0,0-18.22-15.39,49.94,49.94,0,0,0-10-1.35c-7.91-.26-15.82-.54-23.74-.66-8.63-.14-17.27-.13-25.91-.15-3.7,0-3.7,0-3.72,3.84v61.91Z" transform="translate(669.65 0.35)"/><path class="cls-1" d="M-350.61,213.49a371.83,371.83,0,0,1-1.45,39.56A163.27,163.27,0,0,1-358,284.81c-6.85,22.81-21.62,37.62-44.62,44.18a140.93,140.93,0,0,1-28.27,5,411.52,411.52,0,0,1-43.16.84c-14.41-.46-28.72-1.89-42.66-5.77-26.78-7.47-41.86-25.36-47.14-52.39-4.76-24.29-5.59-48.78-5.11-73.41.23-11.87.48-23.75,1.56-35.58a115.62,115.62,0,0,1,9.31-37.12c7.07-15.75,18.76-26.36,34.95-32.18A124.34,124.34,0,0,1-488,91.29c21.71-1.25,43.41-.58,65.07.91a90.32,90.32,0,0,1,33.46,9.1c14.44,7,23.88,18.53,29.54,33.35,3.87,10.14,5.84,20.73,7.19,31.45C-350.78,181.61-350.52,197.19-350.61,213.49Zm-109.55-68a141.79,141.79,0,0,0-17.38,1.39c-12.52,2-20.67,8.78-23.88,21.26a116.81,116.81,0,0,0-3.17,20.23,333.28,333.28,0,0,0-.7,39.22c.4,9.59,1.22,19.16,3.49,28.53,3,12.29,10.66,19.8,23.11,22.32a94.35,94.35,0,0,0,26.51,1.45,66.25,66.25,0,0,0,17.25-3.37,24.58,24.58,0,0,0,15.81-16,46.16,46.16,0,0,0,1.56-5.9c2.11-11,2.92-22.12,3.54-33.25.74-13.1-.5-26.14-1.6-39.17-.5-5.85-1.24-11.68-3.32-17.26-3.57-9.55-10.24-15.41-20.27-17.41C-446.18,146.07-453.26,145.78-460.16,145.45Z" transform="translate(669.65 0.35)"/><path class="cls-1" d="M665.12,233.44h-65.9c-.84,0-1.68,0-2.52,0-2.59.1-2.76.14-2.43,2.68.73,5.7,1.62,11.38,2.5,17.07.21,1.42.59,2.81.93,4.21,2.81,11.36,10,18,21.59,19.77A180.13,180.13,0,0,0,643,278.85c24,.54,48,.09,72,.26,1.68,0,3.36,0,5,.18,3.56.35,5.17,1.94,5.37,5.52s.19,7.2.19,10.8c0,8.16,0,16.32-.12,24.48-.07,5.61-1.39,7.12-7,8.15-8.49,1.57-17.05,2.72-25.64,3.56A470.61,470.61,0,0,1,643.59,334c-12.71-.11-25.44-.17-38.11-1.39a112,112,0,0,1-32.42-7.72c-17-7.07-28-19.75-34.19-36.83a146.69,146.69,0,0,1-7.24-32.94c-2-17.23-1.28-34.5-.88-51.77.3-13.56.48-27.13,1.68-40.63,1.32-14.88,5.37-29,13.31-41.78,8.56-13.77,21.36-21.79,36.77-25.86a191.15,191.15,0,0,1,33-5.22,239,239,0,0,1,31.66-.46c16.17.77,32.29,2.08,47.9,7,11.51,3.65,21.47,9.45,28.93,19.14,5.87,7.63,9.65,16.27,12.23,25.47,3.36,11.94,4.91,24.17,5.83,36.51,1.05,14.26,1.32,28.52,1.18,42.8a47.47,47.47,0,0,1-.48,6.09,7,7,0,0,1-5.32,6.13,17.4,17.4,0,0,1-5,.75c-12.84,0-25.68.12-38.52.16C684.33,233.46,674.72,233.44,665.12,233.44Zm14.61-42.36c-1-8.7-1.92-17.51-4-26.13-2.19-9.2-7.9-15.15-17-17.81-14.55-4.27-29.09-3.92-43.62.12a23.63,23.63,0,0,0-15.1,12.4c-5,9.46-5.58,19.71-5.74,30.07,0,1.36.56,2,1.92,1.93.6,0,1.2,0,1.8,0h78.44C677.53,191.66,678.66,192,679.73,191.08Z" transform="translate(669.65 0.35)"/><path class="cls-1" d="M113.74,232.88q0,37.81,0,75.62a57.54,57.54,0,0,1-.52,7.54,11,11,0,0,1-7.61,9.56c-5.12,1.84-10.48,2.53-15.79,3.42-31.95,5.35-64.17,6.66-96.48,6.23-13.44-.18-26.85-1.11-40-4.05a67.68,67.68,0,0,1-15.58-5.4C-77,318.42-85.52,306.2-89.1,290.37a128.22,128.22,0,0,1-2.85-39.69,94.58,94.58,0,0,1,4.63-22.49c5.92-17.32,18.13-27.82,35.63-32.38a158.55,158.55,0,0,1,27.32-4.3c20.25-1.65,40.54-1.06,60.81-.94,3.6,0,7.21,0,10.81.07,1.23,0,2.08-.16,2.09-1.68,0-6.71.86-13.4,0-20.13-1.17-9.16-6-15.41-14.32-19.22-5.24-2.4-10.86-3-16.47-3.4s-11-.65-16.54-.64q-32.78.08-65.54,0c-1.92,0-3.85,0-5.75-.18-3.09-.27-4.24-1.4-4.61-4.49A34.6,34.6,0,0,1-74,137l-.06-32.05c0-5.31,1.3-7,6.67-8,11.18-2.21,22.49-3.62,33.83-4.71a405,405,0,0,1,51.43-1.42c12.94.41,25.9.94,38.66,3.47a98.59,98.59,0,0,1,27.42,9.49c15.82,8.43,24.83,21.74,27.88,39.27a134.57,134.57,0,0,1,1.78,22.94q.06,33.48,0,67Zm-94.29-.24v-.12c-1.8,0-3.6,0-5.39,0-8.64.09-17.29-.32-25.9.59s-13.88,5.53-16.16,14c-1.73,6.42-1.43,12.87-.32,19.27,1.47,8.52,6.62,13.47,15.16,15.16A102.69,102.69,0,0,0,0,283.2,176.57,176.57,0,0,0,47.26,280c1.75-.35,2.59-1,2.58-3-.1-13.92,0-27.84-.06-41.75,0-2.5-.06-2.55-2.61-2.55C37.93,232.62,28.69,232.64,19.45,232.64Z" transform="translate(669.65 0.35)"/><path class="cls-1" d="M-314,209.46c.17-17.36.6-32.48,1.69-47.56a90.62,90.62,0,0,1,11.55-38.25c7.32-13,18.67-21,32.52-25.77a129.43,129.43,0,0,1,34.19-6.41,463.33,463.33,0,0,1,60.43,0,334.57,334.57,0,0,1,36.78,4.41c.82.14,1.65.32,2.46.54,3.56,1,5.59,3.27,5.62,7q.17,18,0,36c0,3.69-2.17,5.68-5.86,5.94-.83.06-1.68,0-2.52,0-19.8.07-39.6,0-59.4.29-8.63.12-17.28-.06-25.88,1-13.14,1.63-21.19,9.18-25.16,21.52-1.77,5.53-2.29,11.28-2.71,17a340.2,340.2,0,0,0,.64,61.47A52.5,52.5,0,0,0-247,259c4.42,12.32,13.23,19.06,26.16,20.39,9.21.94,18.47.61,27.7.68,18.24.14,36.49.15,54.73.25a29.9,29.9,0,0,1,5,.46c2.85.5,4.19,1.89,4.62,4.73a28.19,28.19,0,0,1,.26,4.31q0,14,0,28.08c0,.6,0,1.2,0,1.8-.28,6.65-2,8.78-8.47,10a348.77,348.77,0,0,1-45.36,5.2,440.72,440.72,0,0,1-45.69-.12c-13.19-.69-26.28-2.19-38.9-6.45-13.72-4.62-25.19-12.2-32.92-24.77-4.57-7.44-7.37-15.59-9.53-24a157.7,157.7,0,0,1-4.64-37C-314.3,230.73-314.2,219-314,209.46Z" transform="translate(669.65 0.35)"/><path class="cls-1" d="M399.37,251.31c2.82-8.54,4.93-17.28,7.31-25.94q15.12-54.93,30.16-109.89c1.58-5.78,3.11-11.57,4.72-17.34,1.27-4.58,2.43-5.55,7-5.56q26.46,0,52.92,0c.48,0,1,0,1.43,0,3.49.3,5,2,4.66,5.41a28.9,28.9,0,0,1-1,4.93q-11.08,40.4-22.22,80.77Q467.71,244,450.9,304.29c-1.61,5.79-3.46,11.49-6.94,16.49-5.73,8.23-13.24,12.84-23.6,12.65-13-.23-25.92,0-38.88-.06-1.43,0-2.86-.14-4.3-.22.21-.93.37-1.88.63-2.8q7-25.47,14-51C394.36,270.05,396.85,260.67,399.37,251.31Z" transform="translate(669.65 0.35)"/><path class="cls-1" d="M323.6,219.83c-2,4.53-2.87,9.38-4.2,14.1q-10,35.47-19.76,71c-1.94,7-4.53,13.67-9.38,19.23-5.15,5.92-11.55,9.22-19.51,9.21h-41.4c-1.07,0-2.15-.12-3.22-.19.2-.93.35-1.88.61-2.8q6.81-24.94,13.63-49.88c2.65-9.7,5.25-19.41,7.88-29.12,2.29-6.69,3.91-13.57,5.79-20.38q16.2-58.91,32.33-117.82c1.36-5,2.62-10,4-14.92,1.35-4.78,2.45-5.67,7.33-5.68,17.51,0,35,0,52.54,0,3.26,0,6,.64,6.84,4.36-1.08,1.93-1,4.16-1.63,6.23q-14.74,53.29-29.4,106.61C325.15,213.08,323.86,216.33,323.6,219.83Z" transform="translate(669.65 0.35)"/><path class="cls-1" d="M248.25,251.38c-2.63,9.71-5.23,19.42-7.88,29.12q-6.8,24.94-13.63,49.88c-.26.92-.41,1.87-.61,2.8-6.52.72-12-1.7-16.85-5.74-5.51-4.6-8.95-10.62-11.05-17.37-2.77-8.91-5.37-17.88-7.9-26.87-16.81-59.84-33.09-119.81-49.45-179.77a21.43,21.43,0,0,1-1-6c.05-3,1.16-4.34,4.2-4.77a28.88,28.88,0,0,1,3.95-.21h49.3c7,0,7.6.48,9.37,7.2,13.14,49.91,27.11,99.59,40.77,149.36C247.69,249.8,248,250.59,248.25,251.38Z" transform="translate(669.65 0.35)"/><path class="cls-1" d="M323.6,219.83c.26-3.5,1.55-6.75,2.46-10.08q14.65-53.33,29.4-106.61c.58-2.07.55-4.3,1.63-6.23,5.94,22.07,11.8,44.15,17.83,66.2q11.64,42.58,23.48,85.11c.28,1,.64,2.06,1,3.09-2.52,9.36-5,18.74-7.57,28.09q-7,25.49-14,51c-.26.92-.42,1.87-.63,2.8-6.94.79-12.62-2-17.6-6.43-5.5-5-8.76-11.32-10.81-18.31q-5.5-18.74-10.79-37.55c-4.63-16.45-9.14-32.93-13.72-49.4A14.25,14.25,0,0,0,323.6,219.83Z" transform="translate(669.65 0.35)"/></svg>