<svg id="Camada_1" data-name="Camada 1" xmlns="http://www.w3.org/2000/svg" viewBox="0 0 59.16 26.51"><defs><style>.cls-1{fill:#fff;}</style></defs><path class="cls-1" d="M43.59,32.49V30.25H48a26.59,26.59,0,0,0,3.9,11.43c.25-.64.46-1.19.65-1.74,0-.1,0-.24-.08-.35a23.72,23.72,0,0,1-2.3-6.94c-.11-.68-.13-1.38-.2-2.06,0-.29.09-.39.36-.37a4,4,0,0,0,.49,0c2.09,0,4.17,0,6.26,0l12,0c.47,0,.48,0,.46.5a19.57,19.57,0,0,1-2,7.69c-.71,1.5-1.58,2.93-2.39,4.39a1.6,1.6,0,0,1-1.51.83H55.84a1.72,1.72,0,0,1-1.57-.93l-.24.52a37,37,0,0,1-2.67,5,.57.57,0,0,1-.55.3c-.72,0-1.45,0-2.23,0l.13-.28C49.36,47,50,45.75,50.66,44.5a.48.48,0,0,0,0-.42A24.05,24.05,0,0,1,47.52,39a26.83,26.83,0,0,1-2-6.12c-.06-.29-.18-.35-.45-.34C44.62,32.51,44.13,32.49,43.59,32.49Z" transform="translate(-10.42 -26.75)"/><path class="cls-1" d="M32.56,32.87,32,30.53c.78-.19,1.54-.4,2.31-.54a11,11,0,0,1,4.08,0,4.62,4.62,0,0,1,4,4.35c.08.87.07,1.76.07,2.63,0,2,0,4,0,6.07,0,.21,0,.38-.25.48a11.54,11.54,0,0,1-8.08.78,4,4,0,0,1-2.56-5.8,4.27,4.27,0,0,1,3.09-2.19,11.5,11.5,0,0,1,4.49,0l.55.09a19,19,0,0,0-.15-2.06,2.36,2.36,0,0,0-2.1-2,9.08,9.08,0,0,0-4.17.35Zm7.06,5.4A9.24,9.24,0,0,0,36.2,38a3.92,3.92,0,0,0-1.11.32A2,2,0,0,0,34,40.43a1.82,1.82,0,0,0,1.28,1.77A5.7,5.7,0,0,0,39.4,42a.39.39,0,0,0,.21-.26C39.62,40.59,39.62,39.44,39.62,38.27Z" transform="translate(-10.42 -26.75)"/><path class="cls-1" d="M19.1,42.09c0,.7.11,1.39.15,2.07,0,.08-.13.21-.22.23a7.68,7.68,0,0,1-3.72,0,3.82,3.82,0,0,1-2.81-3.54c-.05-.44-.07-.88-.08-1.32V32.45h-2V30.14h2V26.89l2.88-.14v3.36h3.48v2.32H15.3c0,.16,0,.27,0,.38q0,3.39,0,6.78a5.74,5.74,0,0,0,.07.93,1.86,1.86,0,0,0,2,1.7C17.9,42.22,18.48,42.14,19.1,42.09Z" transform="translate(-10.42 -26.75)"/><path class="cls-1" d="M30,30l-.38,2.34-.3-.05a7.21,7.21,0,0,0-4,.43.48.48,0,0,0-.35.53c0,3.5,0,7,0,10.51v.48H22.1v-.36q0-6.22,0-12.43a.42.42,0,0,1,.27-.47,13,13,0,0,1,7.49-1A.46.46,0,0,1,30,30Z" transform="translate(-10.42 -26.75)"/><path class="cls-1" d="M64.37,53.25a1.71,1.71,0,0,1-1.72-1.72,1.73,1.73,0,0,1,1.74-1.72,1.72,1.72,0,1,1,0,3.44Z" transform="translate(-10.42 -26.75)"/><path class="cls-1" d="M48.91,53.25a1.72,1.72,0,0,1,0-3.44,1.72,1.72,0,0,1,1.75,1.73A1.7,1.7,0,0,1,48.91,53.25Z" transform="translate(-10.42 -26.75)"/></svg>