<svg id="Camada_1" data-name="Camada 1" xmlns="http://www.w3.org/2000/svg" viewBox="0 0 72.89 23.05"><defs><style>.cls-1{fill:#fff;}</style></defs><path class="cls-1" d="M44.13,47.79v-16a57.71,57.71,0,0,1,6.74.36,4,4,0,0,1,2.93,5.42,3.34,3.34,0,0,1-2,2,2.19,2.19,0,0,0,.22.15c2.14.87,2.86,2.07,2.63,4.41a3.82,3.82,0,0,1-3.5,3.53C48.84,47.93,46.52,47.79,44.13,47.79ZM46.65,41v4.42c1.12,0,2.15,0,3.19,0a2.13,2.13,0,0,0,2.27-2.21A2.07,2.07,0,0,0,49.84,41C48.81,41,47.77,41,46.65,41Zm0-2.52c1.12,0,2.16.07,3.18,0a1.87,1.87,0,0,0,1.74-1.9,1.9,1.9,0,0,0-1.64-2.09,29.83,29.83,0,0,0-3.28,0Z" transform="translate(-3.55 -28.47)"/><path class="cls-1" d="M73.45,39.67c3,1,3.15,2.9,2.93,4.61-.27,2.18-1.95,3.53-4.56,3.64-1.94.09-3.9,0-5.92,0V31.83a58.35,58.35,0,0,1,6.64.33,3.93,3.93,0,0,1,3.1,5.19A3.36,3.36,0,0,1,73.45,39.67ZM68.38,41v4.4c1.16,0,2.26.06,3.34,0a2.15,2.15,0,0,0,2.17-2.24,2.1,2.1,0,0,0-2.17-2.13C70.63,41,69.53,41,68.38,41Zm0-2.47h2.48a4.51,4.51,0,0,0,.73-.07,1.93,1.93,0,0,0,1.71-1.93,1.89,1.89,0,0,0-1.64-2.08,32.53,32.53,0,0,0-3.28,0Z" transform="translate(-3.55 -28.47)"/><path class="cls-1" d="M20.64,32H23v6.68h6.15V32h2.46V47.9H29.22V41.24H23v6.64H20.64Z" transform="translate(-3.55 -28.47)"/><path class="cls-1" d="M41.13,32h2.31c0,.7,0,1.36,0,2,0,2.89,0,5.78-.18,8.67s-1.62,4.64-3.76,5.12c-3.71.85-6.52-.86-6.9-4.63s-.24-7.4-.34-11.16h2.4v2.2c0,2.59,0,5.18,0,7.76,0,2.15,1.22,3.47,3.15,3.5A3.16,3.16,0,0,0,41.11,42c0-3,0-6,0-8.94Z" transform="translate(-3.55 -28.47)"/><path class="cls-1" d="M65.07,45.44v2.44h-11c1.11-1.34,2.12-2.57,3.15-3.79,1.25-1.45,2.55-2.86,3.76-4.34a7.28,7.28,0,0,0,1.14-2.06,2.27,2.27,0,0,0-1.27-3.09,2.68,2.68,0,0,0-3.5,1,13.2,13.2,0,0,0-.62,1.53H55l-.45,0a5.22,5.22,0,0,1,3-4.76,4.9,4.9,0,0,1,5.37.74,4.54,4.54,0,0,1,1.45,5.42,18.77,18.77,0,0,1-2.21,3.62c-.77,1.09-1.68,2.07-2.68,3.27Z" transform="translate(-3.55 -28.47)"/><path class="cls-1" d="M17.5,42.64l-6.78-3.87c-2.11-1.21-4.21-2.44-6.33-3.61a1.27,1.27,0,0,1-.82-1.42,14.38,14.38,0,0,0,0-1.75c.42.22.73.38,1,.56,4,2.27,7.88,4.55,11.85,6.78.76.42,1.18.86,1,1.75A11.27,11.27,0,0,0,17.5,42.64Z" transform="translate(-3.55 -28.47)"/><path class="cls-1" d="M17.5,39l-2.56-1.45c-3.51-2-7-4-10.52-6a1.35,1.35,0,0,1-.85-1.47,14.77,14.77,0,0,0,0-1.64,4.55,4.55,0,0,1,.6.25c4.25,2.43,8.5,4.85,12.72,7.31a1.47,1.47,0,0,1,.57,1A15,15,0,0,1,17.5,39Z" transform="translate(-3.55 -28.47)"/><path class="cls-1" d="M17.5,43.56l-13.92,8c0-.91,0-1.66,0-2.4a.92.92,0,0,1,.45-.57c3.52-2,7.05-4.06,10.59-6.05a1.23,1.23,0,0,1,1,0C16.23,42.78,16.81,43.16,17.5,43.56Z" transform="translate(-3.55 -28.47)"/><path class="cls-1" d="M14.35,41.75,3.58,47.91c0-.89,0-1.64,0-2.39A.88.88,0,0,1,4,44.93C6.5,43.5,9,42.08,11.47,40.71a1.39,1.39,0,0,1,1.06,0A17.65,17.65,0,0,1,14.35,41.75Z" transform="translate(-3.55 -28.47)"/></svg>