<svg id="Camada_1" data-name="Camada 1" xmlns="http://www.w3.org/2000/svg" viewBox="0 0 67.02 30.74"><defs><style>.cls-1{fill:#fff;}</style></defs><path class="cls-1" d="M25.86,52.64a4,4,0,0,1,.48-.07c9.85,0,19.7,0,29.55,0a17.55,17.55,0,0,1,3.43.57,17,17,0,0,0,5.17.38,4.73,4.73,0,0,0,3.58-2.28,13.7,13.7,0,0,1,1.3-1.57,4.1,4.1,0,0,0,1.06-2.34A3.67,3.67,0,0,1,71,45.91a3.46,3.46,0,0,0,.54-2.26,5.19,5.19,0,0,1,.17-1.88c.36-1.34-.06-2.16-1.43-2.33s-2.6-.18-3.91-.27l-.44-.05c.4-.74.73-1.44,1.16-2.08a8.5,8.5,0,0,0,1.66-3.51,3.41,3.41,0,0,0-.32-2.13,1.47,1.47,0,0,0-1.53-.85,1.25,1.25,0,0,0-1.22,1c-.53,2.48-2.26,4.11-4,5.69-.62.54-1.3,1-2,1.59,0-.75,0-1.4,0-2,0-.12.18-.24.29-.34,1-1,2-1.92,2.9-2.91a4.65,4.65,0,0,0,1.12-2.18,3.24,3.24,0,0,1,1.48-2.2A3.29,3.29,0,0,1,70.17,31a6,6,0,0,1-.36,4.86c-.26.55-.59,1.08-.91,1.64.61.07,1.2.11,1.77.2a3.14,3.14,0,0,1,2.81,2.5,8.65,8.65,0,0,1-.13,2,7.23,7.23,0,0,0-.09,1.22,4.87,4.87,0,0,1-.85,3.45,1.4,1.4,0,0,0-.25.74,5,5,0,0,1-1.7,3.42,3.65,3.65,0,0,0-.69.78,6.8,6.8,0,0,1-6.87,3.49,30.27,30.27,0,0,1-4.43-.62,31,31,0,0,0-4.89-.53l-20.87-1-6.11-.3c-.24,0-.49,0-.73-.08Z" transform="translate(-6.49 -24.63)"/><path class="cls-1" d="M14,38.84H12.08v-.57c0-1.74,0-3.47,0-5.21a1.84,1.84,0,0,0-3.53-.75,2.91,2.91,0,0,0-.17,1c0,1.68,0,3.35,0,5v.53H6.49v-.52c0-1.68,0-3.35,0-5a3.63,3.63,0,0,1,2.19-3.61,3.62,3.62,0,0,1,4.16.71l.2.17A3.85,3.85,0,0,1,15.2,29.4a3.64,3.64,0,0,1,4.32,3.29c.13,1.88.05,3.79.06,5.68,0,.14,0,.28,0,.46H17.69v-.52c0-1.71,0-3.41,0-5.12a1.86,1.86,0,1,0-3.72,0C14,35.06,14,36.92,14,38.84Z" transform="translate(-6.49 -24.63)"/><path class="cls-1" d="M27.94,46.49c.59,2.12,3.17,2.51,5,.77l1.46,1.09a4.57,4.57,0,0,1-3.22,1.88,4.72,4.72,0,0,1-2.36-9A4.75,4.75,0,0,1,35.28,46c0,.37-.13.55-.57.54-2.07,0-4.14,0-6.21,0Zm5.27-1.89a2.8,2.8,0,0,0-2.89-1.89A2.6,2.6,0,0,0,28,44.6Z" transform="translate(-6.49 -24.63)"/><path class="cls-1" d="M27.89,35.85l1.44,1a4.67,4.67,0,0,1-5.75,1.54A4.74,4.74,0,1,1,30.17,35H22.85a2.74,2.74,0,0,0,1.74,1.77C25.73,37.24,26.69,37,27.89,35.85Zm-5-2.69h5.31a2.73,2.73,0,0,0-2.51-1.89A2.82,2.82,0,0,0,22.88,33.16Z" transform="translate(-6.49 -24.63)"/><path class="cls-1" d="M36.55,24.63h1.8V29.8l.62-.23A3.73,3.73,0,0,1,44,33c0,1.88,0,3.76,0,5.64a2.06,2.06,0,0,1,0,.21H42.1v-.52c0-1.75,0-3.51,0-5.26a1.85,1.85,0,0,0-3.56-.69,3.19,3.19,0,0,0-.16,1c0,1.64,0,3.28,0,4.93v.55H36.55Z" transform="translate(-6.49 -24.63)"/><path class="cls-1" d="M50,38.86a4.76,4.76,0,1,1,4.78-4.76A4.76,4.76,0,0,1,50,38.86ZM50,37a2.85,2.85,0,0,0,2.87-2.88,2.88,2.88,0,0,0-5.76,0A2.85,2.85,0,0,0,50,37Z" transform="translate(-6.49 -24.63)"/><path class="cls-1" d="M63.84,40.76a4.75,4.75,0,1,1-4.79,4.75A4.73,4.73,0,0,1,63.84,40.76Zm2.86,4.76a2.89,2.89,0,1,0-2.89,2.87A2.89,2.89,0,0,0,66.7,45.52Z" transform="translate(-6.49 -24.63)"/><path class="cls-1" d="M38.37,50.23H36.55a1.75,1.75,0,0,1,0-.32c0-1.79,0-3.57,0-5.36A3.73,3.73,0,0,1,43.94,44c.15,2,0,4.11,0,6.19H42.1v-5.6a1.86,1.86,0,1,0-3.72,0c0,1.69,0,3.38,0,5.07Z" transform="translate(-6.49 -24.63)"/><path class="cls-1" d="M45.27,40.87c.65,0,1.26,0,1.85,0,.13,0,.29.21.35.36.78,1.93,1.55,3.87,2.33,5.81.05.14.12.27.23.52.24-.6.45-1.11.65-1.62.63-1.57,1.26-3.13,1.86-4.7a.52.52,0,0,1,.6-.4c.52,0,1,0,1.63,0L54.33,42Q52.68,45.92,51,49.86a.56.56,0,0,1-.63.4c-1.23,0-1.24,0-1.72-1.14-1-2.53-2.11-5-3.16-7.58C45.44,41.34,45.37,41.13,45.27,40.87Z" transform="translate(-6.49 -24.63)"/><path class="cls-1" d="M35.27,38.8A3.43,3.43,0,0,1,32.05,37a4,4,0,0,1-.49-1.67c0-3.47,0-6.94,0-10.41,0-.09,0-.18,0-.3h1.82v10c0,1.48.29,1.87,1.69,2.37a.32.32,0,0,1,.19.22C35.28,37.73,35.27,38.27,35.27,38.8Z" transform="translate(-6.49 -24.63)"/><path class="cls-1" d="M59.75,29.38v1.78c-1.47.38-1.86.89-1.86,2.44v5.23H56.07c0-.11,0-.23,0-.35,0-1.8,0-3.6,0-5.4A3.65,3.65,0,0,1,59.75,29.38Z" transform="translate(-6.49 -24.63)"/><path class="cls-1" d="M56,50.21V40.83h1.83v9.38Z" transform="translate(-6.49 -24.63)"/></svg>