<svg id="Camada_1" data-name="Camada 1" xmlns="http://www.w3.org/2000/svg" viewBox="0 0 59.06 22.87"><defs><style>.cls-1{fill:#fff;}</style></defs><path class="cls-1" d="M51.6,35.33,51.73,34h3.06a.9.9,0,0,1,.05.19c0,3.14-.05,6.27-.09,9.41,0,.77-.12,1.53-.17,2.29,0,.34-.15.5-.53.48a3.26,3.26,0,0,0-1,.13,1.53,1.53,0,0,0-1.19,2,8.36,8.36,0,0,0,.36,1,4.92,4.92,0,0,1-1.74.67,10.24,10.24,0,0,1-5.77-.44c-.47-.19-.47-.2-.34-.7.18-.66.35-1.33.52-2,0-.09.06-.17.07-.22.66.21,1.29.46,1.93.62a4.75,4.75,0,0,0,2.25.07,2.46,2.46,0,0,0,2-2.24,11.81,11.81,0,0,0,0-1.19.39.39,0,0,0-.11.06,4.28,4.28,0,0,1-5.79.28,5.16,5.16,0,0,1-1.83-3.29,7,7,0,0,1,.73-4.79,4.82,4.82,0,0,1,4.42-2.59A3.43,3.43,0,0,1,51.6,35.33Zm-.38,4.25h-.06c0-.33,0-.67,0-1a2.07,2.07,0,0,0-1.49-2.06,2,2,0,0,0-2.35,1.29A4.65,4.65,0,0,0,47,39.09,3.74,3.74,0,0,0,47.66,42a1.9,1.9,0,0,0,2,.65A1.67,1.67,0,0,0,51,41.31,14.09,14.09,0,0,0,51.22,39.58Z" transform="translate(-10.47 -28.56)"/><path class="cls-1" d="M13.64,43.91c0,.49-.06.88-.11,1.26,0,.11-.13.28-.2.28-.94,0-1.87,0-2.86,0V45c0-2,.06-4.06.07-6.08,0-3.22,0-6.44,0-9.66,0-.45,0-.45.46-.45.9,0,1.81,0,2.71,0,.36,0,.45.11.44.45,0,1.87,0,3.74,0,5.6v.41a7,7,0,0,1,.63-.6,4.49,4.49,0,0,1,6.85,1.75,7.67,7.67,0,0,1,.6,4,6.72,6.72,0,0,1-1.06,3.15,4.91,4.91,0,0,1-5.51,2A3.8,3.8,0,0,1,13.64,43.91Zm5.09-4.19c-.15-.63-.23-1.21-.42-1.75A2.08,2.08,0,0,0,16,36.54a2.18,2.18,0,0,0-1.85,2.2q0,1,0,1.95a2.15,2.15,0,0,0,1.68,2.11,2.06,2.06,0,0,0,2.4-1.2A14.1,14.1,0,0,0,18.73,39.72Z" transform="translate(-10.47 -28.56)"/><path class="cls-1" d="M59.63,31.48,57.45,31c-.48-.1-.51-.1-.37-.56s.41-1.12.62-1.67c.07-.16.16-.28.37-.18a14.28,14.28,0,0,0,4.19,1.11,38.18,38.18,0,0,0,5.84.52h1.43a1.33,1.33,0,0,1-.16.26A29.64,29.64,0,0,0,65,36.68a39.4,39.4,0,0,0-3.68,8.7c-.06.22-.14.29-.37.28l-3.63-.15c-.24,0-.26-.15-.26-.32,0-1,0-2.11,0-3.16A36.12,36.12,0,0,1,58.26,35c.16-.59.34-1.18.56-1.76S59.34,32.1,59.63,31.48Z" transform="translate(-10.47 -28.56)"/><path class="cls-1" d="M32.05,34c.94,0,1.9,0,2.86,0,.07,0,.19.16.2.26.07.41.1.82.15,1.28.16-.2.29-.35.43-.5a4.24,4.24,0,0,1,5.69-.43,4.17,4.17,0,0,1,1.36,2.59,9,9,0,0,1,.14,1.64c0,2.07,0,4.14,0,6.22,0,.3-.07.43-.39.42-1,0-1.9,0-2.85,0-.28,0-.38-.09-.37-.38,0-2.09,0-4.19,0-6.29a3.67,3.67,0,0,0-.19-1,1.61,1.61,0,0,0-2.42-.88,1.89,1.89,0,0,0-1,1.66c0,2.16,0,4.31,0,6.46,0,.45,0,.45-.46.45H32.46c-.31,0-.41-.09-.41-.41,0-2.86,0-5.73,0-8.59Z" transform="translate(-10.47 -28.56)"/><path class="cls-1" d="M22.71,37.13v-7.9c0-.45,0-.45.46-.45h2.75c.29,0,.4.07.4.39q0,8,0,15.94c0,.28-.08.38-.37.38H23.07c-.29,0-.37-.1-.37-.38Q22.72,41.11,22.71,37.13Z" transform="translate(-10.47 -28.56)"/><path class="cls-1" d="M31,39.73c0,1.79,0,3.57,0,5.36,0,.31-.1.39-.39.39-.95,0-1.9,0-2.85,0-.3,0-.38-.11-.38-.4q0-5.37,0-10.72c0-.27.06-.39.36-.38,1,0,2,0,2.92,0,.29,0,.34.1.34.36C31,36.13,31,37.93,31,39.73Z" transform="translate(-10.47 -28.56)"/><path class="cls-1" d="M57.93,51.42a9.4,9.4,0,0,1-3.85-.7,2.94,2.94,0,0,1-1.9-2.37,1.41,1.41,0,0,1,1.08-1.64,5.76,5.76,0,0,1,2.41-.07,8.08,8.08,0,0,1,4.23,1.7,4.45,4.45,0,0,1,1,1.25,1,1,0,0,1-.58,1.48,10.68,10.68,0,0,1-1.7.35A5.14,5.14,0,0,1,57.93,51.42Z" transform="translate(-10.47 -28.56)"/><path class="cls-1" d="M29.22,29a1.78,1.78,0,0,1,1.89,1.82,1.83,1.83,0,0,1-1.94,1.79,1.79,1.79,0,0,1-1.86-1.82A1.77,1.77,0,0,1,29.22,29Z" transform="translate(-10.47 -28.56)"/></svg>