<svg id="Camada_1" data-name="Camada 1" xmlns="http://www.w3.org/2000/svg" viewBox="0 0 835.92 310.59"><defs><style>.cls-1{fill:#fff;}</style></defs><path class="cls-1" d="M-6.41,115.15c-19,23.2-35.77,44.7-53.71,65.19-6.74,7.7-5.78,12.36.06,19.65,18.33,22.85,35.92,46.29,55.56,71.79-19.59,0-36.84.3-54.06-.33-2.51-.09-5.17-4.35-7.23-7.08-16.28-21.47-32.42-43-50.64-67.29v74.09h-45V45.57h44.06V182.82l2.59.85c15.5-19.42,31.4-38.52,46.28-58.4,5.79-7.74,11.81-11,21.46-10.33C-34.59,115.81-22,115.15-6.41,115.15Z" transform="translate(161.43 -44.71)"/><path class="cls-1" d="M151.14,270.71H111.51V247.05c-3.29,3.13-4.88,4.41-6.19,5.93-26.85,31.19-72.08,30-97.65-2.67-22.4-28.6-25.29-70.95-7.54-102.86C20.58,110.67,74,93.7,110.42,139.84c.44-8.5.81-15.58,1.23-23.54h39.49Zm-44.61-77.4c-.1-23.25-14.77-40.18-35-40.38-21-.2-36.74,17.73-36.49,41.56.24,22.77,15.38,39.57,35.83,39.76S106.63,217,106.53,193.31Z" transform="translate(161.43 -44.71)"/><path class="cls-1" d="M223.14,270.6H180.79V116.22h37v21.67c3.21-3,5.09-4.55,6.68-6.34,17.2-19.39,41.92-25.56,66-16.39,20.19,7.68,31.11,25.37,31.27,51.52.18,31.69.06,63.38,0,95.07,0,2.64-.36,5.29-.6,8.58H278.44c0-16.78.05-33.06,0-49.34-.06-15.25.35-30.54-.56-45.75-1.06-17.64-10.3-25.51-27.33-24.92-16.1.57-27.06,11.21-27.27,27.68-.36,27.38-.11,54.76-.12,82.15Z" transform="translate(161.43 -44.71)"/><path class="cls-1" d="M575.68,113.42c0,32.24-.25,63.05.09,93.85.22,20.33,15,31.49,34.66,27,13.85-3.13,20.67-12.31,20.9-29.75.32-25.81.09-51.62.1-77.44V114h42.18c.27,3.32.78,6.64.79,10,.06,27.38.17,54.75,0,82.13-.24,40.63-26.15,66-68.38,67.12-43.5,1.21-71.31-22.05-73.15-63-1.31-29.28-.37-58.65-.68-88-.07-6.38,1.92-9.22,8.72-9C551.81,113.72,562.74,113.42,575.68,113.42Z" transform="translate(161.43 -44.71)"/><path class="cls-1" d="M431.49,113.27h78v39.4L499,154c1.46,16.43,4.89,32.64,3.92,48.59-2.63,43.1-38.2,73.19-83,72.21-44.35-1-77.79-33.28-79.3-76.62-.14-3.91-.15-7.84,0-11.75,1.28-29.65,5-32.8,35.84-28.56,0,3.49.05,7.21,0,10.94-.14,9-.82,18-.41,27,1.3,28.76,20.94,48.77,47.05,48.4,25.13-.35,45.55-22.27,45.89-50,.25-20.21-7.28-36.37-25.65-46.87-3.69-2.11-6.72-7.05-8-11.31C433.19,129,432.76,121.42,431.49,113.27Z" transform="translate(161.43 -44.71)"/><path class="cls-1" d="M376.58,83.85c-.62-12.15-1.25-24.46-2-39.14,19,6.89,27.74,18.53,29.81,37.09,7.51-16.57,17.1-29.9,37.33-35.47-2.15,19.71,1.59,39-14.81,53.94-3,2.71-4.29,8.91-3.88,13.25,1,10.46,4.24,20.7,5.19,31.16,1.49,16.45,9.54,27.92,24.15,34.7,6.72,3.12,8.69,7.51,8.53,14.64-.54,22.72-15.37,40.45-36,42.21-20.38,1.73-37.2-12.62-40.22-35.77-1.34-10.35-.7-21.05-.08-31.54,1-16.72-2-20.32-18.31-20.84-10.16-.32-20.52-.13-30.35-2.24-4.61-1-9.85-6.19-11.61-10.73-1.13-2.91,2.57-9.26,5.84-12,10-8.4,21.83-14.12,28.19-27.12C361.07,90.38,370.15,87.89,376.58,83.85Z" transform="translate(161.43 -44.71)"/><path class="cls-1" d="M364.76,354.78V309.53c55.43,2.27,101.06-17.13,139-62.7,0,15.78-1.6,28.57.35,40.78,3.3,20.6-6.63,31.08-23.23,40.24C444.8,347.8,406.81,357.74,364.76,354.78Z" transform="translate(161.43 -44.71)"/></svg>