<svg id="Camada_1" data-name="Camada 1" xmlns="http://www.w3.org/2000/svg" viewBox="0 0 61.38 36.52"><defs><style>.cls-1{fill:#fff;}</style></defs><path class="cls-1" d="M61,58.26,60.5,58a1.94,1.94,0,0,1-1.08-1.85,1.87,1.87,0,0,1,1.51-1.7c.51-.1,1-.08,1.53-.2A5.55,5.55,0,0,0,66.9,49c0-.77,0-1.55,0-2.38a1.16,1.16,0,0,0-.31.11c-5.09,4.62-12,1.46-13.92-3.59A10.78,10.78,0,0,1,52,39.74c-.09-2.81,0-5.62,0-8.42a1.89,1.89,0,0,1,3.65-.66,2.9,2.9,0,0,1,.12.93c0,2.63,0,5.26,0,7.88a5.57,5.57,0,1,0,11.14.09c0-2.75,0-5.5,0-8.24a1.83,1.83,0,0,1,1.66-1.86,1.86,1.86,0,0,1,2,1.31,2.35,2.35,0,0,1,.08.7c0,5.85,0,11.71,0,17.56a9.3,9.3,0,0,1-8.13,9.09,2.25,2.25,0,0,0-.44.14Z" transform="translate(-9.31 -21.74)"/><path class="cls-1" d="M29.85,42c0-1.39-.06-2.79,0-4.18A9.32,9.32,0,0,1,39,29a9.43,9.43,0,0,1,9.46,7.73,7.86,7.86,0,0,1,.14,1.37q0,4.2,0,8.42a1.92,1.92,0,0,1-1,1.77,1.82,1.82,0,0,1-1.93-.07,2.06,2.06,0,0,1-.9-1.9c0-2.69,0-5.38,0-8.07a5.54,5.54,0,0,0-11.07,0c0,2.77,0,5.53,0,8.3a1.85,1.85,0,0,1-1.5,1.89,1.82,1.82,0,0,1-2.06-.93,3,3,0,0,1-.23-1.15c0-1.47,0-3,0-4.42Z" transform="translate(-9.31 -21.74)"/><path class="cls-1" d="M13.21,29.41h3.24a6.77,6.77,0,0,1,1,.06,1.9,1.9,0,0,1,1.67,1.94,1.93,1.93,0,0,1-2,1.84c-1.3,0-2.59,0-3.92,0a3.25,3.25,0,0,0-.06.49c0,1.85,0,3.7,0,5.55a7.07,7.07,0,0,0,1.28,3.91,3.22,3.22,0,0,0,2.59,1.48,2,2,0,0,1,2.06,2,2,2,0,0,1-2.34,1.83,7.37,7.37,0,0,1-6.52-4.84A12,12,0,0,1,9.33,39c0-4.62,0-9.23,0-13.85a2,2,0,0,1,1.32-2,1.84,1.84,0,0,1,2.15.74,3.07,3.07,0,0,1,.37,1.35c0,1.22,0,2.43,0,3.65C13.17,29.07,13.2,29.2,13.21,29.41Z" transform="translate(-9.31 -21.74)"/><path class="cls-1" d="M22.46,38.91c0-2.53,0-5,0-7.58a1.87,1.87,0,0,1,1.62-1.86,1.83,1.83,0,0,1,2,1.18,3.42,3.42,0,0,1,.13,1.11q0,6.15,0,12.3c0,.9,0,1.8,0,2.69a1.87,1.87,0,0,1-1.83,1.78A1.94,1.94,0,0,1,22.49,47a3.5,3.5,0,0,1,0-.65Z" transform="translate(-9.31 -21.74)"/><path class="cls-1" d="M24.32,21.74A2.23,2.23,0,0,1,26.61,24a2.26,2.26,0,0,1-2.29,2.3A2.34,2.34,0,0,1,22,24,2.31,2.31,0,0,1,24.32,21.74Z" transform="translate(-9.31 -21.74)"/></svg>