<svg id="Camada_1" data-name="Camada 1" xmlns="http://www.w3.org/2000/svg" viewBox="0 0 1058.17 157.32"><defs><style>.cls-1{fill:#fff;}</style></defs><path class="cls-1" d="M112.32,242.36c-1,.65-1.93,1.11-2.71,1.69-16,12-44.51,5.13-49.3-21.6-2.5-13.93.87-25.95,11.74-35.44,9.43-8.24,28-9.8,37.26-1.77,1.92,1.65,3.2,1.94,4.36-1,.48-1.24,2.48-2.43,3.92-2.62,3.07-.41,6.24,0,9.35-.18,3.74-.19,5.17,1.58,5.13,5.15-.07,7.49,0,15,0,22.47,0,11,0,22,0,33,0,5.69-.76,6.38-6.55,6.42h-3.38C115.42,248.44,115.42,248.44,112.32,242.36Zm1.06-27.48c0-10.33-7.22-17.64-17.3-17.59a17.59,17.59,0,0,0,0,35.18C106,232.58,113.42,225.06,113.38,214.88Z" transform="translate(322.57 -121.34)"/><path class="cls-1" d="M-22.79,179.56c18.22.59,32.21,11.75,35.77,29,3.3,16-5.07,31.74-21,38.35-16.16,6.7-36.89,1.83-46.66-14.38-11.26-18.69-1.73-44.29,19.16-50.47C-31.4,180.85-27,180.38-22.79,179.56Zm-17.42,35.33a17.57,17.57,0,0,0,17.36,17.88c9.47,0,17.49-8.27,17.42-18a17.52,17.52,0,0,0-17.32-17.54A17.23,17.23,0,0,0-40.21,214.89Z" transform="translate(322.57 -121.34)"/><path class="cls-1" d="M434.16,191a40.64,40.64,0,0,0,.31-5.38c-.23-3.46,1.61-4.22,4.6-4.23s4.66.8,4.64,4.23c-.1,16.24.05,32.47-.09,48.7-.05,6.34,0,12.78-1.11,19-2.22,12.55-10.32,20.42-22.37,23.56a52.37,52.37,0,0,1-37.85-4.25c-2.23-1.12-4.27-2.12-2.46-5.34,2.08-3.72,3.15-4.46,6.7-2.63a43.76,43.76,0,0,0,25.4,4.62c14.34-1.6,23.37-12.75,21.2-28.41-.06-.43-.47-.81-.85-1.42a9.53,9.53,0,0,0-1.92,1.12c-10.44,10.14-22.84,11.84-35.66,6.49-13.07-5.45-19.16-16.41-19.75-30.51-.49-11.66,3.06-21.59,12-29.35,11.74-10.18,32.18-9.55,43.22,1.33,1,.94,1.95,1.86,2.92,2.79Zm-24.62,49.39c14.15,0,24.5-10.76,24.57-25.52s-10.43-25.53-24.57-25.55c-14,0-24.71,11.11-24.68,25.53S395.62,240.43,409.54,240.42Z" transform="translate(322.57 -121.34)"/><path class="cls-1" d="M645,191.7a50.49,50.49,0,0,0,.6-5.07c0-7.61.13-15.23,0-22.85-.07-3.67,1.65-4.73,5-4.75s4.76,1,4.74,4.53q-.12,40.26,0,80.52c0,2.9-.78,4.44-4,4.4-3,0-4.8-.84-4.61-4.26a56.6,56.6,0,0,0-.41-6.3,40.77,40.77,0,0,0-3.84,2.83c-9.13,8.85-20.17,10.86-31.93,7.78-12.42-3.25-20-12.05-22.81-24.39-3.22-13.84-.21-26.25,10.29-36.32,11.43-10.94,33.08-10.08,43.06.44C642.12,189.3,643.29,190.18,645,191.7ZM596.9,214.26c-.36,14.31,9.79,25.74,23.22,26.15,14.76.44,25.11-9.42,25.52-24.3.42-15.48-9.19-26.4-23.52-26.75C607.94,189,597.27,199.55,596.9,214.26Z" transform="translate(322.57 -121.34)"/><path class="cls-1" d="M-158.54,147.87a26,26,0,0,1-26.41,26.27c-15,0-26.44-11.46-26.44-26.26a26.26,26.26,0,0,1,26.24-26.54A26.21,26.21,0,0,1-158.54,147.87Z" transform="translate(322.57 -121.34)"/><path class="cls-1" d="M564.14,192.12a53.34,53.34,0,0,0,.46-6.55c-.24-3.54,1.73-4.14,4.65-4.14s4.48.84,4.44,4c-.09,7.48,0,15,0,22.45q0,17.79,0,35.56c0,4.51-3,6.51-7.15,4.56-.92-.44-1.53-2-1.79-3.22a42.4,42.4,0,0,1-.38-5.19c0-.32-.37-.62-.94-1.51-9.28,10.52-21,13.51-34.19,10.64-7.45-1.62-13.33-6.06-17.83-12.23-9.31-12.77-9.21-33.6,2.2-46.16,6.7-7.39,15.09-10.55,25-10.33S556.64,184.17,564.14,192.12Zm-49.25,22.8c0,14.56,10.59,25.5,24.61,25.5,14.3,0,24.36-10.54,24.35-25.53s-10.11-25.51-24.39-25.53C525.48,189.34,514.85,200.4,514.89,214.92Z" transform="translate(322.57 -121.34)"/><path class="cls-1" d="M725.23,238.57c-8.41,9.19-18.79,12.43-30.83,10.75a30.42,30.42,0,0,1-19.18-10.67c-11.06-12.64-11.07-35.36,0-47.76,6.71-7.5,15.1-11,25.23-10.86,9.9.15,18.09,3.85,25.59,12.11.37-2.91.76-4.62.79-6.33,0-3.7,2.08-4.51,5.37-4.39s3.39,2.07,3.39,4.52q-.06,29,0,58c0,2.52-.26,4.39-3.47,4.49-3.06.09-5.15-.54-5.25-4.12,0-1.78-.4-3.56-.62-5.34Zm.87-23.84c-.09-14.93-10.31-25.45-24.65-25.37-13.92.07-24.55,11.36-24.35,25.87s10.84,25.26,24.67,25.19C716.06,240.34,726.19,229.64,726.1,214.73Z" transform="translate(322.57 -121.34)"/><path class="cls-1" d="M47.35,219.17c0,11,.43,22-.11,32.93-.68,13.79-12.5,25.23-26.24,26.31-3.63.28-4.77-.7-4.82-4.34s0-7.24,0-10.86c0-2.35.95-3.53,3.34-4.13,6.06-1.51,8.57-4.75,8.6-10.95.06-16.09,0-32.19.06-48.29,0-2.8-.65-4.59-3.91-4.54-2.6,0-3.65-1.54-3.85-4.06-.76-9.17-.24-9.78,9-9.78,4.37,0,8.74,0,13.11,0,4.19.06,5,.84,5,5.11.06,10.85,0,21.71,0,32.57Z" transform="translate(322.57 -121.34)"/><path class="cls-1" d="M338.62,218c-7.87,0-15.74,0-23.61,0-2.9,0-4,.64-3.19,3.94,3.44,13.71,18.15,22.38,32.51,18.62a47.15,47.15,0,0,0,11-4.57c2.71-1.51,4-.82,5.44,1.49s2,4.26-.72,6.08c-7.15,4.75-15.16,6.38-23.53,6.24-13.59-.22-24.67-5.55-31.18-17.84-9.47-17.87-3.5-45.79,22-51.11,24.85-5.2,39.79,11.84,39.38,33.64-.05,2.9-1.54,3.56-4,3.54-8-.06-16,0-24,0Zm-4.53-8.19c6.23,0,12.47,0,18.7,0,3.68,0,4.37-1.08,3.43-4.66-2.7-10.17-10.76-16.57-20.86-16.57-10.47,0-20.38,7.18-22.93,16.58-1,3.72-.3,4.64,3.7,4.67C322.11,209.83,328.1,209.81,334.09,209.8Z" transform="translate(322.57 -121.34)"/><path class="cls-1" d="M-100.39,193.31c0-9.48,0-19,0-28.46,0-4.73,1-5.67,5.77-5.75,2.5,0,5,0,7.49,0,5.2,0,5.91.71,5.92,5.82,0,17,0,34,0,50.93a41.16,41.16,0,0,0,.27,6c.81,5.45,4.07,8.63,9.58,8.59,3.59,0,5.19,1.7,6.3,4.62s2.37,5.51,3.3,8.35c1.08,3.34,0,5-3.31,5.75-18.15,4.18-34.87-8.68-35.31-27.36-.22-9.48,0-19,0-28.46Z" transform="translate(322.57 -121.34)"/><path class="cls-1" d="M185.08,191.67c3.64-3,6.2-5.53,9.18-7.42,11.75-7.46,33-6.06,41.1,9.76a42.13,42.13,0,0,1,4.21,16.43c.64,11.07.07,22.2.25,33.31.07,3.74-1.53,4.8-4.92,4.72-4.62-.1-5.46-.58-5.48-4.58-.08-10.48,0-21-.06-31.44-.07-7.52-1.88-14.4-8.3-19.14-7-5.19-14.81-5.28-22.36-1.9s-11.82,9.87-12,18.38c-.21,8.73-.06,17.47-.07,26.2,0,2.25,0,4.5,0,6.74,0,5.31-.54,5.7-5.76,5.75-3.25,0-4.74-1.06-4.72-4.56.1-19.34.07-38.69,0-58,0-2.9.87-4.4,4-4.46s4.57,1.23,4.45,4.43A55.17,55.17,0,0,0,185.08,191.67Z" transform="translate(322.57 -121.34)"/><path class="cls-1" d="M258.32,211c0-5.74-.14-11.49.06-17.23.11-3.18-1.16-4.26-4.17-4-1.86.15-3.75,0-5.62,0-3.18.07-4-1.79-4-4.57s1.3-3.86,3.93-3.68h.37c11.1-.12,9.6,1,9.72-9.95,0-3,0-6,0-9,0-3.16,2.21-3.47,4.66-3.46s5,0,5,3.48c0,4.75.16,9.49,0,14.23-.11,3.42,1.36,4.73,4.67,4.68q8.43-.15,16.86,0c1.9,0,4.68-1,4.86,2.44a5.85,5.85,0,0,1-5.29,5.74c-5.37.11-10.74,0-16.11.05-4.72,0-4.93.22-4.94,4.8,0,9.74-.07,19.48,0,29.22.07,8.29,4.41,14.42,11.52,16.54,4.67,1.39,8.91.19,12.79-2.39,2.32-1.54,3.61-.55,4.88,1.36s2.61,3.85.11,5.85c-8.38,6.7-30.5,7.85-36.86-7.56-1.7-4.13-2-8.95-2.35-13.5C258,219.72,258.32,215.33,258.32,211Z" transform="translate(322.57 -121.34)"/><path class="cls-1" d="M470.54,190.62a11,11,0,0,0,1.67-1.24c7-8.88,16.11-10.62,26.51-7.45,2.1.64,4.7,1.2,3.95,4.36-.79,3.33-3,4.08-6.66,3.46-3.47-.58-7.24-1.25-10.57-.51-10.06,2.26-14.37,11-14.79,21.72s-.09,21.73-.11,32.59c0,4.56-.37,4.89-4.89,4.89s-5-.4-5-4.87q0-28.65,0-57.31c0-2.51-.09-4.76,3.49-4.82,4.23-.08,5.11.49,5.63,4.57C470,187.4,470.24,188.77,470.54,190.62Z" transform="translate(322.57 -121.34)"/><path class="cls-1" d="M159.17,215.11c0,9.6-.12,19.2.06,28.79.07,3.87-1.91,4.53-5.12,4.59s-5.08-.78-5.06-4.57q.18-29,0-58c0-3.81,1.75-4.6,5-4.54s5.21.62,5.13,4.53C159.05,195.66,159.17,205.39,159.17,215.11Z" transform="translate(322.57 -121.34)"/><path class="cls-1" d="M49.55,159.16c0,6.73-4.81,11.17-11.85,11.06s-11.63-4.72-11.51-11.45a11.62,11.62,0,0,1,11.73-11.11C44.66,147.68,49.61,152.57,49.55,159.16Z" transform="translate(322.57 -121.34)"/><path class="cls-1" d="M154,166.7c-4.76,0-7.8-2.95-7.82-7.55s3-7.68,7.66-7.77a7.85,7.85,0,0,1,8.23,7.78A7.75,7.75,0,0,1,154,166.7Z" transform="translate(322.57 -121.34)"/><path class="cls-1" d="M-322.33,179.81V161.53a24.86,24.86,0,0,1,17.67-24.11c8.91-2.65,17.05-.86,24.06,5.4,5.76,5.16,8.36,11.68,8.34,19.36,0,11.46,0,22.93,0,34.4a31,31,0,0,0,7.34,20.82,30,30,0,0,0,13.28,9.19,30.87,30.87,0,0,0,22.42-.46c10.09-4.2,16.39-11.78,18.77-22.48a33.18,33.18,0,0,0,.63-6.54c.1-5.08,3-8.14,8.13-8.16,11.42,0,22.85,0,34.27,0,5.17,0,7.88,3.78,7.87,8a81.26,81.26,0,0,1-11.26,41.32,78,78,0,0,1-13.76,17.41A81.5,81.5,0,0,1-209.36,272a82,82,0,0,1-24.86,6.15,79,79,0,0,1-28.12-2.66,80.52,80.52,0,0,1-27.86-14,83.67,83.67,0,0,1-12.63-12.19,82.39,82.39,0,0,1-11.92-18.73,73.11,73.11,0,0,1-7-25.53c-.57-8.38-.55-16.81-.8-25.22Z" transform="translate(322.57 -121.34)"/></svg>